<svg height="224.775337" viewBox="0 0 1335.9467 674.93335" width="444.888667" xmlns="http://www.w3.org/2000/svg" xmlns:xlink="http://www.w3.org/1999/xlink"><linearGradient id="a"><stop offset="0" stop-color="#fff"/><stop offset=".195313" stop-color="#bba154"/><stop offset=".3125" stop-color="#e4cb7c"/><stop offset=".433594" stop-color="#f1e3b9"/><stop offset=".546875" stop-color="#e4cb7c"/><stop offset=".640625" stop-color="#bba154"/><stop offset=".714844" stop-color="#e4cb7c"/><stop offset=".796875" stop-color="#bba154"/><stop offset="1" stop-color="#fff"/></linearGradient><linearGradient id="b" gradientTransform="matrix(7701.8 0 0 -7701.8 1164.28 56.89)" gradientUnits="userSpaceOnUse" spreadMethod="pad" x1="0" x2="1" xlink:href="#a" y1="0" y2="0"/><linearGradient id="c" gradientTransform="matrix(7701.8 0 0 -7701.8 1164.28 2875.72)" gradientUnits="userSpaceOnUse" spreadMethod="pad" x1="0" x2="1" xlink:href="#a" y1="0" y2="0"/><clipPath id="d"><path d="m0 0h10020v5062h-10020z"/></clipPath><clipPath id="e"><path d="m5037.16 2771.34c-632.56 0-1145.33 512.78-1145.33 1145.34 0 632.57 512.77 1145.34 1145.33 1145.34s1145.33-512.77 1145.33-1145.34c0-632.56-512.77-1145.34-1145.33-1145.34z"/></clipPath><linearGradient id="f" gradientTransform="matrix(2290.66 0 0 -2290.66 3891.83 3916.68)" gradientUnits="userSpaceOnUse" spreadMethod="pad" x1="0" x2="1" y1="0" y2="0"><stop offset="0" stop-color="#ce2028"/><stop offset=".214844" stop-color="#771e27"/><stop offset=".355469" stop-color="#972734"/><stop offset=".652344" stop-color="#e41d25"/><stop offset="1" stop-color="#972734"/></linearGradient><clipPath id="g"><path d="m5037.16 4803.9c-487.05 0-881.88-397.21-881.88-887.22 0-490 394.83-887.22 881.88-887.22s881.87 397.22 881.87 887.22c0 490.01-394.82 887.22-881.87 887.22z"/></clipPath><linearGradient id="h" gradientTransform="matrix(1763.75 0 0 -1763.75 4155.28 3916.68)" gradientUnits="userSpaceOnUse" spreadMethod="pad" x1="0" x2="1" y1="0" y2="0"><stop offset="0" stop-color="#bba154"/><stop offset=".0390625" stop-color="#bba154"/><stop offset=".105469" stop-color="#e4cb7c"/><stop offset=".640625" stop-color="#bba154"/><stop offset=".714844" stop-color="#e4cb7c"/><stop offset=".996094" stop-color="#bba154"/><stop offset="1" stop-color="#bba154"/></linearGradient><clipPath id="i"><path d="m5810.68 2916.02s-6.95 67.33 22.78 119.76c29.74 52.43 67.46 56.45 67.46 56.45s-6.41-36.19-5.51-76.2-9.39-64.96-31.45-84.8c-22.03-19.84-53.28-15.21-53.28-15.21zm649.26 601.56c36.51 81.41 88.83 194 118.24 335.82 40.65 195.72 33.28 320.69 33.28 320.69l73.72-87.61s-22.43-215.53-74.85-376.1c-20.78-63.6-62.42-144.5-96.97-212.71-29.04-48.81-54.2-75.79-69.82-89.63 16.79 26.9 19.68 62.8 17.92 92.2-.35 5.94-.89 11.75-1.52 17.34zm-138.61-156.53s-33.38 39.76 7.36 112.08c40.76 72.33 102.23 100.6 102.23 100.6s-2.62-21.39-.22-61.48c2.41-40.08-3.86-92.25-42.13-117.23-38.28-24.99-67.24-33.97-67.24-33.97zm-37.35-84.79s14.32 39.08 64.63 63.25c50.32 24.17 77.74 23.38 102.35 34.39 24.59 11.02 33.63 21.6 33.63 21.6s-7.54-49.69-49.28-89.05-91.89-49.32-119.43-46.95c-27.56 2.36-31.9 16.76-31.9 16.76zm-88.06-116.35s16.99 37.99 68.88 58.58c51.88 20.61 79.2 17.9 104.5 27.18 25.29 9.27 35.06 19.19 35.06 19.19s-10.98-49.04-55.38-85.39c-44.39-36.36-95.09-42.79-122.44-38.5-27.3 4.27-30.62 18.94-30.62 18.94zm-115.57-107.36s21.51 35.63 75.51 49.75 80.78 8.12 107.01 14.24c26.25 6.11 37.15 14.78 37.15 14.78s-16.88-47.34-65.35-78.01c-48.52-30.67-99.61-30.88-126.21-23.3s-28.11 22.54-28.11 22.54zm-116.74-97.43s25.39 34.35 85.3 45.35c59.9 11 88.92 3.47 117.98 8.07 29.07 4.6 41.43 12.63 41.43 12.63s-20.94-46.3-75.66-74.15c-54.73-27.85-110.73-25.12-139.48-16.03-28.71 9.1-29.57 24.13-29.57 24.13zm-128.59-61.37s31.99 28.32 92.87 26.63 87.7-15.09 117.09-16.63c29.38-1.54 43.16 3.73 43.16 3.73s-30.11-40.93-89.45-56.8c-59.3-15.86-113.51-1.54-139.73 13.33-26.21 14.87-23.94 29.74-23.94 29.74zm399.22 399.35s-31.88 71.69-22.07 141.18c9.8 69.48 45.45 88.57 45.45 88.57s7.15-42.46 22.91-86.33c15.74-43.87 14.88-75.44.54-105.93-14.33-30.47-46.83-37.49-46.83-37.49zm-86.76-129.66s-29.35 72.76-17.13 141.86c12.23 69.1 48.5 86.93 48.5 86.93s5.66-42.68 19.88-87.07 12.25-75.92-3.12-105.88c-15.4-29.97-48.13-35.84-48.13-35.84zm-101.29-98.17s-24.57 71.85-7.87 137.2c16.68 65.35 54.02 79.84 54.02 79.84s2.87-41.33 14.16-84.89c11.31-43.56 7.29-73.64-10-101.25-17.3-27.62-50.31-30.9-50.31-30.9zm-109.37-94.53s-14.89 70.74 8.47 130.56c23.36 59.83 60.32 69.19 60.32 69.19s-2.07-39.39 3.55-81.87c5.63-42.48-1.68-70.44-21.21-94.53s-51.13-23.35-51.13-23.35z"/></clipPath><linearGradient id="j"><stop offset="0" stop-color="#bba154"/><stop offset=".0390625" stop-color="#bba154"/><stop offset=".105469" stop-color="#e4cb7c"/><stop offset=".199219" stop-color="#f1e3b9"/><stop offset=".3125" stop-color="#f1e3b9"/><stop offset=".546875" stop-color="#e4cb7c"/><stop offset=".640625" stop-color="#bba154"/><stop offset=".714844" stop-color="#e4cb7c"/><stop offset="1" stop-color="#bba154"/></linearGradient><linearGradient id="k" gradientTransform="matrix(875.195 0 0 -875.195 5809.98 3508.92)" gradientUnits="userSpaceOnUse" spreadMethod="pad" x1="0" x2="1" xlink:href="#j" y1="0" y2="0"/><linearGradient id="l" gradientTransform="matrix(1873.17 0 0 -1873.17 5345.54 3399.07)" gradientUnits="userSpaceOnUse" spreadMethod="pad" x1="0" x2="1" xlink:href="#j" y1="0" y2="0"/><linearGradient id="m" gradientTransform="matrix(-1873.19 -.0001638 -.0001638 1873.19 4711.75 3399.07)" gradientUnits="userSpaceOnUse" spreadMethod="pad" x1="0" x2="1" y1="0" y2="0"><stop offset="0" stop-color="#bba154"/><stop offset=".0390625" stop-color="#bba154"/><stop offset=".105469" stop-color="#e4cb7c"/><stop offset=".199219" stop-color="#f1e3b9"/><stop offset=".3125" stop-color="#f1e3b9"/><stop offset=".546875" stop-color="#e4cb7c"/><stop offset=".640625" stop-color="#bba154"/><stop offset=".714844" stop-color="#e4cb7c"/><stop offset=".992188" stop-color="#bba154"/><stop offset="1" stop-color="#bba154"/></linearGradient><linearGradient id="n" gradientTransform="matrix(9992.09 0 0 -9992.09 27.4609 1391.07)" gradientUnits="userSpaceOnUse" spreadMethod="pad" x1="0" x2="1" y1="0" y2="0"><stop offset="0" stop-color="#bfa34d"/><stop offset=".0390625" stop-color="#bfa34d"/><stop offset=".105469" stop-color="#e4cb7c"/><stop offset=".199219" stop-color="#f1e3b9"/><stop offset=".3125" stop-color="#f1e3b9"/><stop offset=".546875" stop-color="#e4cb7c"/><stop offset=".640625" stop-color="#bfa34d"/><stop offset=".714844" stop-color="#e4cb7c"/><stop offset=".996094" stop-color="#bfa34d"/><stop offset="1" stop-color="#bfa34d"/></linearGradient><linearGradient id="o" gradientTransform="matrix(9797.5 0 0 -9797.5 100.313 1404.76)" gradientUnits="userSpaceOnUse" spreadMethod="pad" x1="0" x2="1" y1="0" y2="0"><stop offset="0" stop-color="#e4cb7c"/><stop offset=".0390625" stop-color="#bfa34d"/><stop offset=".105469" stop-color="#e4cb7c"/><stop offset=".199219" stop-color="#f1e3b9"/><stop offset=".3125" stop-color="#f1e3b9"/><stop offset=".546875" stop-color="#e4cb7c"/><stop offset=".640625" stop-color="#bfa34d"/><stop offset=".714844" stop-color="#e4cb7c"/><stop offset=".996094" stop-color="#bfa34d"/><stop offset="1" stop-color="#bfa34d"/></linearGradient><g transform="matrix(.13333333 0 0 -.13333333 0 674.93333)"><path d="m1164.28 113.781h7701.79v-113.781h-7701.79z" fill="url(#b)" fill-rule="evenodd"/><path d="m1164.28 2932.61h1551.79l50.18-113.77h-1601.97zm6186.52 0h1515.27v-113.77h-1565.43z" fill="url(#c)" fill-rule="evenodd"/><path d="m7477.36 3588.08c-24.06-45.76-47.65-92.48-68.9-140.13-23.13-51.44-50.47-104.76-62.27-159.97h-39.65c24.07 54.73 48.6 109.47 74.55 163.74 20.77 42.46 40.59 87.29 64.65 127.87h-98.14c-11.8 0-53.79-.47-65.59-4.71v32.08h195.35zm-274.49-116.07c0 36.81-20.31 79.27-62.3 79.27-30.67 0-61.8-27.84-61.8-58.98 0-42 31.13-86.83 76.43-86.83 32.55 0 47.67 39.17 47.67 66.54zm37.74 18.4c0-58.51-47.19-102.39-104.77-102.39-70.29 0-98.13 66.53-98.13 127.4 0 108.06 69.83 177.42 171.29 202.43l5.18-15.57c-90.61-29.26-127.4-75.97-136.84-170.82 16.98 27.38 52.86 42.94 84.48 42.94 46.7 0 78.79-39.16 78.79-83.99zm-286.8-97.67h-52.85c7.56 7.07 8.02 116.08 8.02 126.46l-.46 54.73c-21.7-13.21-42.95-25.47-67.02-33.5l-7.54 10.85c36.33 16.52 71.72 35.87 100.04 64.18l15.08-4.72c-3.28-8.02-3.28-91.54-3.28-91.54-.47-10.38.47-119.39 8.01-126.46zm768.75 90.12c0-108.06-70.31-177.42-171.29-202.43l-6.13 15.57c93.43 30.2 122.69 76.44 137.32 170.81-16.52-27.36-52.85-42.93-84-42.93-46.72 0-78.79 38.69-78.79 83.99 0 58.51 47.19 102.39 104.74 102.39 70.32 0 98.15-66.53 98.15-127.4zm-41.06 23.12c0 42.47-31.13 86.82-76.44 86.82-32.54 0-47.66-39.16-47.66-66.53 0-36.8 20.31-79.27 62.31-79.27 30.66 0 61.79 27.84 61.79 58.98" fill="#8e0a26"/><path d="m2934.47 3353.09h-51.33c7.07 7.09 7.52 108.87 7.52 118.61v58.41c0 9.74-.45 111.52-7.52 118.6h51.33c-7.07-7.08-7.52-108.86-7.52-118.6v-58.41c0-9.74.45-111.52 7.52-118.61zm-143.32 0h-186.76c7.09 6.64 7.54 108.87 7.54 118.61v58.41c0 9.74-.45 111.97-7.54 118.6 59.77-1.76 119.95-1.32 180.12-.88v-24.35c-25.66 4.44-53.08 4.44-79.65 4.44l-53.1-.45c-3.54-32.31-3.54-65.05-3.54-97.36v-14.6c20.35 0 40.71-.88 61.06-.88 16.83 0 37.63-.89 53.55 3.97v-25.66c-15.04 4.87-38.04 3.54-53.55 3.54l-61.06-.45v-30.53c0-30.53.43-61.51 3.54-92.04 17.71-.89 35.41-.89 53.1-.89 14.16 0 74.36 1.77 86.29 9.29zm-270.7 80.99c0-58.42-64.61-85.4-114.63-85.4-20.8 0-42.93 4.41-61.5 13.27l13.71 32.75c18.59-11.95 48.24-26.11 70.35-26.11 26.99 0 54 23.45 54 50.89 0 75.67-133.65 67.27-133.65 148.25 0 56.2 44.26 81.87 95.16 81.87 18.59 0 37.16-3.54 54.41-10.62l-13.71-29.66c-11.05 13.29-29.65 24.79-47.79 24.79-28.32 0-52.68-18.58-52.68-48.23 0-73.91 136.33-61.96 136.33-151.8zm711.29 189.4c-23.44 5.32-51.78 3.99-75.67 3.99-4.88 0-10.62-.88-15.5.45-3.97-32.31-3.52-65.5-3.52-97.81v-58.41c0-9.74.43-111.97 7.5-118.61h-51.33c7.09 6.64 7.54 108.87 7.54 118.61v65.05c0 29.65.86 61.07-3.98 90.72-28.79 0-59.32 2.66-87.64-3.99v24.35h222.6z" fill="#8e0a26"/><g clip-path="url(#d)"><g clip-path="url(#e)"><path d="m5002 2771v1h-27v1h-13v1h-13v1h-13v1h-13v1h-9v1h-8v1h-8v1h-8v1h-8v1h-8v1h-8v1h-6v1h-6v1h-6v1h-5v1h-6v1h-5v1h-6v1h-6v1h-5v1h-6v1h-5v1h-4v1h-5v1h-4v1h-4v1h-5v1h-4v1h-4v1h-5v1h-4v1h-4v1h-5v1h-4v1h-4v1h-3v1h-4v1h-3v1h-4v1h-3v1h-4v1h-3v1h-4v1h-3v1h-4v1h-3v1h-4v1h-3v1h-4v1h-3v1h-3v1h-3v1h-3v1h-3v1h-3v1h-3v1h-3v1h-3v1h-3v1h-3v1h-3v1h-3v1h-3v1h-3v1h-3v1h-3v1h-3v1h-3v1h-2v1h-3v1h-2v1h-3v1h-2v1h-3v1h-2v1h-3v1h-2v1h-3v1h-2v1h-3v1h-3v1h-2v1h-3v1h-2v1h-3v1h-2v1h-3v1h-2v1h-3v1h-2v1h-2v1h-2v1h-2v1h-3v1h-2v1h-2v1h-2v1h-3v1h-2v1h-2v1h-2v1h-2v1h-3v1h-2v1h-2v1h-2v1h-2v1h-3v1h-2v1h-2v1h-2v1h-2v1h-2v1h-2v1h-2v1h-2v1h-2v1h-2v1h-2v1h-2v1h-2v1h-2v1h-2v1h-2v1h-2v1h-2v1h-2v1h-2v1h-1v1h-2v1h-2v1h-2v1h-2v1h-2v1h-2v1h-2v1h-2v1h-2v1h-1v1h-2v1h-2v1h-2v1h-1v1h-2v1h-2v1h-2v1h-1v1h-2v1h-2v1h-2v1h-1v1h-2v1h-2v1h-2v1h-1v1h-2v1h-2v1h-2v1h-1v1h-2v1h-2v1h-1v1h-2v1h-2v1h-2v1h-1v1h-2v1h-1v1h-2v1h-1v1h-2v1h-1v1h-2v1h-2v1h-1v1h-2v1h-1v1h-2v1h-1v1h-2v1h-2v1h-1v1h-2v1h-1v1h-2v1h-1v1h-2v1h-1v1h-2v1h-2v1h-1v1h-2v1h-1v1h-2v1h-1v1h-2v1h-1v1h-1v1h-2v1h-1v1h-2v1h-1v1h-1v1h-2v1h-1v1h-2v1h-1v1h-1v1h-2v1h-1v1h-2v1h-1v1h-1v1h-2v1h-1v1h-2v1h-1v1h-2v1h-1v1h-1v1h-2v1h-1v1h-2v1h-1v1h-1v1h-2v1h-1v1h-1v1h-2v1h-1v1h-1v1h-1v1h-2v1h-1v1h-1v1h-1v1h-2v1h-1v1h-1v1h-2v1h-1v1h-1v1h-1v1h-2v1h-1v1h-1v1h-1v1h-2v1h-1v1h-1v1h-2v1h-1v1h-1v1h-1v1h-2v1h-1v1h-1v1h-1v1h-2v1h-1v1h-1v1h-1v1h-1v1h-2v1h-1v1h-1v1h-1v1h-1v1h-1v1h-2v1h-1v1h-1v1h-1v1h-1v1h-1v1h-1v1h-2v1h-1v1h-1v1h-1v1h-1v1h-1v1h-2v1h-1v1h-1v1h-1v1h-1v1h-1v1h-1v1h-2v1h-1v1h-1v1h-1v1h-1v1h-1v1h-2v1h-1v1h-1v1h-1v1h-1v1h-1v1h-1v1h-1v1h-1v1h-1v1h-1v1h-1v1h-1v1h-1v1h-1v1h-1v1h-1v1h-1v1h-1v1h-1v1h-2v1h-1v1h-1v1h-1v1h-1v1h-1v1h-1v1h-1v1h-1v1h-1v1h-1v1h-1v1h-1v1h-1v1h-1v1h-1v1h-1v1h-1v1h-1v1h-1v1h-1v1h-1v1h-1v1h-1v1h-1v1h-1v1h-1v1h-1v1h-1v1h-1v1h-1v1h-1v1h-1v1h-1v1h-1v1h-1v1h-1v1h-1v2h-1v1h-1v1h-1v1h-1v1h-1v1h-1v1h-1v1h-1v1h-1v1h-1v1h-1v1h-1v1h-1v1h-1v1h-1v1h-1v1h-1v1h-1v1h-1v1h-1v2h-1v1h-1v1h-1v1h-1v1h-1v1h-1v2h-1v1h-1v1h-1v1h-1v1h-1v1h-1v2h-1v1h-1v1h-1v1h-1v1h-1v1h-1v1h-1v2h-1v1h-1v1h-1v1h-1v1h-1v1h-1v2h-1v1h-1v1h-1v1h-1v1h-1v1h-1v1h-1v2h-1v1h-1v1h-1v1h-1v1h-1v2h-1v1h-1v1h-1v1h-1v2h-1v1h-1v1h-1v2h-1v1h-1v1h-1v1h-1v2h-1v1h-1v1h-1v1h-1v2h-1v1h-1v1h-1v2h-1v1h-1v1h-1v1h-1v2h-1v1h-1v1h-1v1h-1v2h-1v1h-1v1h-1v2h-1v1h-1v1h-1v1h-1v2h-1v1h-1v2h-1v1h-1v1h-1v2h-1v1h-1v2h-1v1h-1v1h-1v2h-1v1h-1v2h-1v1h-1v2h-1v1h-1v1h-1v2h-1v1h-1v2h-1v1h-1v1h-1v2h-1v1h-1v2h-1v1h-1v1h-1v2h-1v1h-1v2h-1v1h-1v1h-1v2h-1v2h-1v1h-1v2h-1v1h-1v2h-1v1h-1v2h-1v2h-1v1h-1v2h-1v1h-1v2h-1v1h-1v2h-1v1h-1v2h-1v2h-1v1h-1v2h-1v1h-1v2h-1v1h-1v2h-1v1h-1v2h-1v2h-1v1h-1v2h-1v1h-1v2h-1v2h-1v2h-1v1h-1v2h-1v2h-1v2h-1v1h-1v2h-1v2h-1v2h-1v1h-1v2h-1v2h-1v1h-1v2h-1v2h-1v2h-1v1h-1v2h-1v2h-1v2h-1v1h-1v2h-1v2h-1v2h-1v1h-1v2h-1v2h-1v2h-1v2h-1v2h-1v2h-1v2h-1v2h-1v2h-1v2h-1v2h-1v2h-1v2h-1v2h-1v2h-1v2h-1v2h-1v2h-1v1h-1v2h-1v2h-1v2h-1v2h-1v2h-1v2h-1v2h-1v3h-1v2h-1v2h-1v2h-1v2h-1v3h-1v2h-1v2h-1v2h-1v2h-1v3h-1v2h-1v2h-1v2h-1v3h-1v2h-1v2h-1v2h-1v2h-1v3h-1v2h-1v2h-1v2h-1v3h-1v3h-1v2h-1v3h-1v2h-1v3h-1v2h-1v3h-1v2h-1v3h-1v2h-1v3h-1v2h-1v3h-1v3h-1v2h-1v3h-1v2h-1v3h-1v2h-1v3h-1v3h-1v3h-1v3h-1v3h-1v3h-1v3h-1v3h-1v3h-1v3h-1v3h-1v3h-1v3h-1v3h-1v3h-1v3h-1v3h-1v3h-1v3h-1v4h-1v3h-1v4h-1v3h-1v4h-1v3h-1v4h-1v3h-1v4h-1v3h-1v4h-1v4h-1v3h-1v4h-1v4h-1v4h-1v4h-1v5h-1v4h-1v4h-1v5h-1v4h-1v4h-1v5h-1v4h-1v4h-1v5h-1v6h-1v5h-1v6h-1v5h-1v6h-1v6h-1v5h-1v6h-1v5h-1v6h-1v8h-1v8h-1v8h-1v7h-1v8h-1v8h-1v8h-1v12h-1v13h-1v13h-1v13h-1v19h-1v30h-1v40h1v29h1v19h1v13h1v13h1v13h1v12h1v8h1v8h1v8h1v8h1v8h1v7h1v8h1v6h1v6h1v5h1v6h1v5h1v6h1v6h1v5h1v6h1v5h1v5h1v4h1v5h1v4h1v4h1v5h1v4h1v4h1v5h1v4h1v4h1v5h1v4h1v3h1v4h1v3h1v4h1v3h1v4h1v3h1v4h1v3h1v4h1v4h1v3h1v4h1v3h1v4h1v3h1v3h1v3h1v3h1v3h1v3h1v2h1v3h1v3h1v3h1v3h1v3h1v3h1v3h1v3h1v3h1v3h1v3h1v3h1v2h1v3h1v2h1v3h1v2h1v3h1v2h1v3h1v3h1v2h1v3h1v2h1v3h1v2h1v3h1v2h1v3h1v2h1v3h1v2h1v3h1v2h1v2h1v2h1v2h1v3h1v2h1v2h1v2h1v2h1v3h1v2h1v2h1v2h1v3h1v2h1v2h1v2h1v2h1v3h1v2h1v2h1v2h1v2h1v2h1v2h1v2h1v2h1v2h1v2h1v2h1v2h1v2h1v2h1v2h1v2h1v2h1v1h1v2h1v2h1v2h1v2h1v2h1v2h1v2h1v2h1v2h1v2h1v2h1v1h1v2h1v2h1v2h1v1h1v2h1v2h1v2h1v1h1v2h1v2h1v2h1v1h1v2h1v2h1v2h1v1h1v2h1v2h1v2h1v1h1v2h1v2h1v1h1v2h1v2h1v2h1v1h1v2h1v1h1v2h1v1h1v2h1v2h1v1h1v2h1v1h1v2h1v1h1v2h1v1h1v2h1v2h1v1h1v2h1v1h1v2h1v1h1v2h1v2h1v1h1v2h1v1h1v2h1v1h1v2h1v1h1v2h1v1h1v2h1v1h1v1h1v2h1v1h1v2h1v1h1v1h1v2h1v1h1v2h1v1h1v1h1v2h1v1h1v2h1v1h1v1h1v2h1v1h1v2h1v1h1v2h1v1h1v1h1v2h1v1h1v2h1v1h1v1h1v2h1v1h1v1h1v1h1v2h1v1h1v1h1v1h1v2h1v1h1v1h1v2h1v1h1v1h1v1h1v2h1v1h1v1h1v1h1v2h1v1h1v1h1v2h1v1h1v1h1v1h1v2h1v1h1v1h1v1h1v2h1v1h1v1h1v1h1v2h1v1h1v1h1v1h1v1h1v1h1v2h1v1h1v1h1v1h1v1h1v1h1v1h1v2h1v1h1v1h1v1h1v1h1v1h1v2h1v1h1v1h1v1h1v1h1v1h1v1h1v2h1v1h1v1h1v1h1v1h1v1h1v2h1v1h1v1h1v1h1v1h1v1h1v1h1v1h1v1h1v1h1v1h1v1h1v1h1v1h1v1h1v2h1v1h1v1h1v1h1v1h1v1h1v1h1v1h1v1h1v1h1v1h1v1h1v1h1v1h1v1h1v1h1v1h1v1h1v1h1v1h1v2h1v1h1v1h1v1h1v1h1v1h1v1h1v1h1v1h1v1h1v1h1v1h2v1h1v1h1v1h1v1h1v1h1v1h1v1h1v1h1v1h1v1h1v1h1v1h1v1h1v1h1v1h1v1h1v1h1v1h1v1h1v1h2v1h1v1h1v1h1v1h1v1h1v1h1v1h1v1h1v1h1v1h1v1h1v1h1v1h1v1h1v1h2v1h1v1h1v1h1v1h1v1h1v1h2v1h1v1h1v1h1v1h1v1h1v1h1v1h2v1h1v1h1v1h1v1h1v1h1v1h2v1h1v1h1v1h1v1h1v1h1v1h1v1h2v1h1v1h1v1h1v1h1v1h1v1h2v1h1v1h1v1h1v1h2v1h1v1h1v1h1v1h2v1h1v1h1v1h2v1h1v1h1v1h1v1h2v1h1v1h1v1h1v1h2v1h1v1h1v1h2v1h1v1h1v1h1v1h2v1h1v1h1v1h1v1h2v1h1v1h1v1h2v1h1v1h1v1h2v1h1v1h1v1h2v1h1v1h2v1h1v1h1v1h2v1h1v1h2v1h1v1h1v1h2v1h1v1h2v1h1v1h1v1h2v1h1v1h2v1h1v1h1v1h2v1h1v1h2v1h1v1h1v1h2v1h1v1h2v1h1v1h2v1h1v1h2v1h1v1h2v1h2v1h1v1h2v1h1v1h2v1h1v1h2v1h1v1h2v1h2v1h1v1h2v1h1v1h2v1h1v1h2v1h2v1h1v1h2v1h1v1h2v1h1v1h2v1h1v1h2v1h2v1h2v1h1v1h2v1h2v1h2v1h1v1h2v1h2v1h2v1h1v1h2v1h2v1h1v1h2v1h2v1h2v1h1v1h2v1h2v1h2v1h1v1h2v1h2v1h2v1h1v1h2v1h2v1h2v1h2v1h2v1h2v1h2v1h2v1h2v1h2v1h2v1h2v1h2v1h2v1h1v1h2v1h2v1h2v1h2v1h2v1h2v1h2v1h2v1h2v1h2v1h2v1h2v1h2v1h3v1h2v1h2v1h2v1h2v1h3v1h2v1h2v1h2v1h2v1h3v1h2v1h2v1h2v1h3v1h2v1h2v1h2v1h2v1h3v1h2v1h2v1h3v1h2v1h3v1h2v1h3v1h3v1h2v1h3v1h2v1h3v1h2v1h3v1h2v1h3v1h2v1h3v1h2v1h3v1h3v1h2v1h3v1h3v1h3v1h3v1h3v1h3v1h3v1h3v1h3v1h3v1h3v1h3v1h3v1h3v1h3v1h3v1h3v1h3v1h3v1h4v1h3v1h4v1h3v1h4v1h3v1h4v1h3v1h4v1h3v1h4v1h4v1h3v1h4v1h4v1h4v1h5v1h4v1h4v1h5v1h4v1h4v1h5v1h4v1h4v1h5v1h4v1h6v1h5v1h6v1h6v1h5v1h6v1h5v1h6v1h6v1h6v1h8v1h7v1h8v1h8v1h8v1h8v1h8v1h12v1h13v1h14v1h13v1h21v1h91v-1h21v-1h13v-1h13v-1h13v-1h13v-1h7v-1h8v-1h8v-1h8v-1h8v-1h8v-1h8v-1h6v-1h5v-1h6v-1h5v-1h6v-1h6v-1h5v-1h6v-1h5v-1h6v-1h5v-1h4v-1h4v-1h5v-1h4v-1h4v-1h5v-1h4v-1h4v-1h5v-1h4v-1h4v-1h5v-1h3v-1h4v-1h3v-1h4v-1h3v-1h4v-1h3v-1h4v-1h3v-1h4v-1h3v-1h4v-1h4v-1h3v-1h4v-1h3v-1h3v-1h3v-1h3v-1h3v-1h3v-1h3v-1h2v-1h3v-1h3v-1h3v-1h3v-1h3v-1h3v-1h3v-1h3v-1h3v-1h3v-1h3v-1h2v-1h3v-1h2v-1h3v-1h2v-1h3v-1h3v-1h2v-1h3v-1h2v-1h3v-1h2v-1h3v-1h2v-1h3v-1h2v-1h3v-1h2v-1h3v-1h3v-1h2v-1h2v-1h2v-1h2v-1h3v-1h2v-1h2v-1h2v-1h2v-1h3v-1h2v-1h2v-1h2v-1h2v-1h3v-1h2v-1h2v-1h2v-1h3v-1h2v-1h2v-1h2v-1h2v-1h2v-1h2v-1h2v-1h2v-1h2v-1h2v-1h2v-1h2v-1h2v-1h2v-1h2v-1h2v-1h2v-1h2v-1h2v-1h2v-1h2v-1h2v-1h1v-1h2v-1h2v-1h2v-1h2v-1h2v-1h2v-1h2v-1h2v-1h1v-1h2v-1h2v-1h2v-1h1v-1h2v-1h2v-1h2v-1h1v-1h2v-1h2v-1h2v-1h1v-1h2v-1h2v-1h2v-1h1v-1h2v-1h2v-1h1v-1h2v-1h2v-1h2v-1h1v-1h2v-1h2v-1h1v-1h2v-1h2v-1h1v-1h2v-1h1v-1h2v-1h1v-1h2v-1h1v-1h2v-1h2v-1h1v-1h2v-1h1v-1h2v-1h1v-1h2v-1h2v-1h1v-1h2v-1h1v-1h2v-1h1v-1h2v-1h1v-1h2v-1h2v-1h1v-1h2v-1h1v-1h1v-1h2v-1h1v-1h2v-1h1v-1h1v-1h2v-1h1v-1h2v-1h1v-1h1v-1h2v-1h1v-1h2v-1h1v-1h2v-1h1v-1h1v-1h2v-1h1v-1h2v-1h1v-1h1v-1h2v-1h1v-1h2v-1h1v-1h1v-1h2v-1h1v-1h2v-1h1v-1h1v-1h1v-1h2v-1h1v-1h1v-1h1v-1h2v-1h1v-1h1v-1h2v-1h1v-1h1v-1h1v-1h2v-1h1v-1h1v-1h1v-1h2v-1h1v-1h1v-1h2v-1h1v-1h1v-1h1v-1h2v-1h1v-1h1v-1h1v-1h2v-1h1v-1h1v-1h2v-1h1v-1h1v-1h1v-1h1v-1h1v-1h2v-1h1v-1h1v-1h1v-1h1v-1h1v-1h1v-1h2v-1h1v-1h1v-1h1v-1h1v-1h1v-1h2v-1h1v-1h1v-1h1v-1h1v-1h1v-1h1v-1h2v-1h1v-1h1v-1h1v-1h1v-1h1v-1h2v-1h1v-1h1v-1h1v-1h1v-1h1v-1h1v-1h1v-1h1v-1h1v-1h2v-1h1v-1h1v-1h1v-1h1v-1h1v-1h1v-1h1v-1h1v-1h1v-1h1v-1h1v-1h1v-1h1v-1h1v-1h1v-1h1v-1h1v-1h1v-1h1v-1h1v-1h2v-1h1v-1h1v-1h1v-1h1v-1h1v-1h1v-1h1v-1h1v-1h1v-1h1v-1h1v-1h1v-1h1v-1h1v-1h1v-1h1v-1h1v-1h1v-1h1v-1h1v-1h1v-1h1v-1h1v-1h1v-2h1v-1h1v-1h1v-1h1v-1h1v-1h1v-1h1v-1h1v-1h1v-1h1v-1h1v-1h1v-1h1v-1h1v-1h1v-1h1v-1h1v-1h1v-1h1v-1h1v-2h1v-1h1v-1h1v-1h1v-1h1v-1h1v-1h1v-1h1v-1h1v-1h1v-2h1v-1h1v-1h1v-1h1v-1h1v-1h1v-1h1v-2h1v-1h1v-1h1v-1h1v-1h1v-1h1v-2h1v-1h1v-1h1v-1h1v-1h1v-1h1v-1h1v-2h1v-1h1v-1h1v-1h1v-1h1v-1h1v-2h1v-1h1v-1h1v-1h1v-1h1v-1h1v-2h1v-1h1v-1h1v-1h1v-2h1v-1h1v-1h1v-2h1v-1h1v-1h1v-1h1v-2h1v-1h1v-1h1v-1h1v-2h1v-1h1v-1h1v-2h1v-1h1v-1h1v-1h1v-2h1v-1h1v-1h1v-1h1v-2h1v-1h1v-1h1v-2h1v-1h1v-1h1v-1h1v-2h1v-1h1v-1h1v-2h1v-1h1v-2h1v-1h1v-1h1v-2h1v-1h1v-2h1v-1h1v-1h1v-2h1v-1h1v-2h1v-1h1v-2h1v-1h1v-1h1v-2h1v-1h1v-2h1v-1h1v-1h1v-2h1v-1h1v-2h1v-1h1v-1h1v-2h1v-1h1v-2h1v-1h1v-2h1v-1h1v-2h1v-1h1v-2h1v-2h1v-1h1v-2h1v-1h1v-2h1v-1h1v-2h1v-1h1v-2h1v-2h1v-1h1v-2h1v-1h1v-2h1v-1h1v-2h1v-2h1v-1h1v-2h1v-1h1v-2h1v-1h1v-2h1v-1h1v-2h1v-2h1v-2h1v-1h1v-2h1v-2h1v-2h1v-1h1v-2h1v-2h1v-2h1v-1h1v-2h1v-2h1v-2h1v-1h1v-2h1v-2h1v-2h1v-1h1v-2h1v-2h1v-1h1v-2h1v-2h1v-2h1v-1h1v-2h1v-2h1v-2h1v-2h1v-2h1v-2h1v-2h1v-2h1v-2h1v-2h1v-2h1v-2h1v-2h1v-2h1v-2h1v-2h1v-2h1v-2h1v-1h1v-2h1v-2h1v-2h1v-2h1v-2h1v-2h1v-2h1v-2h1v-3h1v-2h1v-2h1v-2h1v-3h1v-2h1v-2h1v-2h1v-2h1v-3h1v-2h1v-2h1v-2h1v-2h1v-3h1v-2h1v-2h1v-2h1v-3h1v-2h1v-2h1v-2h1v-3h1v-2h1v-3h1v-2h1v-3h1v-3h1v-2h1v-3h1v-2h1v-3h1v-2h1v-3h1v-2h1v-3h1v-2h1v-3h1v-2h1v-3h1v-2h1v-3h1v-3h1v-3h1v-3h1v-3h1v-3h1v-3h1v-3h1v-3h1v-3h1v-3h1v-3h1v-3h1v-2h1v-3h1v-3h1v-3h1v-3h1v-3h1v-4h1v-3h1v-4h1v-3h1v-4h1v-3h1v-4h1v-3h1v-4h1v-3h1v-4h1v-3h1v-4h1v-4h1v-3h1v-4h1v-4h1v-5h1v-4h1v-4h1v-5h1v-4h1v-4h1v-5h1v-4h1v-4h1v-5h1v-4h1v-5h1v-6h1v-6h1v-5h1v-6h1v-5h1v-6h1v-6h1v-5h1v-6h1v-7h1v-8h1v-8h1v-8h1v-7h1v-8h1v-8h1v-10h1v-13h1v-14h1v-13h1v-13h1v-30h1v-59h-1v-30h-1v-13h-1v-13h-1v-13h-1v-13h-1v-10h-1v-8h-1v-8h-1v-8h-1v-8h-1v-8h-1v-8h-1v-7h-1v-5h-1v-6h-1v-6h-1v-5h-1v-6h-1v-5h-1v-6h-1v-6h-1v-5h-1v-6h-1v-4h-1v-4h-1v-5h-1v-4h-1v-4h-1v-5h-1v-4h-1v-4h-1v-5h-1v-4h-1v-4h-1v-5h-1v-4h-1v-3h-1v-4h-1v-3h-1v-4h-1v-3h-1v-4h-1v-3h-1v-4h-1v-3h-1v-4h-1v-3h-1v-4h-1v-3h-1v-4h-1v-3h-1v-3h-1v-3h-1v-3h-1v-3h-1v-3h-1v-3h-1v-3h-1v-3h-1v-3h-1v-3h-1v-3h-1v-3h-1v-3h-1v-3h-1v-3h-1v-3h-1v-3h-1v-3h-1v-2h-1v-3h-1v-2h-1v-3h-1v-2h-1v-3h-1v-2h-1v-3h-1v-2h-1v-3h-1v-3h-1v-2h-1v-3h-1v-2h-1v-3h-1v-2h-1v-3h-1v-2h-1v-3h-1v-2h-1v-3h-1v-2h-1v-2h-1v-2h-1v-3h-1v-2h-1v-2h-1v-2h-1v-2h-1v-3h-1v-2h-1v-2h-1v-2h-1v-2h-1v-3h-1v-2h-1v-2h-1v-2h-1v-3h-1v-2h-1v-2h-1v-2h-1v-2h-1v-2h-1v-2h-1v-2h-1v-2h-1v-2h-1v-2h-1v-2h-1v-2h-1v-2h-1v-2h-1v-2h-1v-2h-1v-2h-1v-2h-1v-2h-1v-2h-1v-2h-1v-2h-1v-2h-1v-2h-1v-1h-1v-2h-1v-2h-1v-2h-1v-2h-1v-2h-1v-2h-1v-2h-1v-1h-1v-2h-1v-2h-1v-2h-1v-1h-1v-2h-1v-2h-1v-2h-1v-1h-1v-2h-1v-2h-1v-2h-1v-1h-1v-2h-1v-2h-1v-2h-1v-1h-1v-2h-1v-2h-1v-1h-1v-2h-1v-2h-1v-2h-1v-1h-1v-2h-1v-2h-1v-1h-1v-2h-1v-1h-1v-2h-1v-2h-1v-1h-1v-2h-1v-1h-1v-2h-1v-1h-1v-2h-1v-1h-1v-2h-1v-2h-1v-1h-1v-2h-1v-1h-1v-2h-1v-1h-1v-2h-1v-2h-1v-1h-1v-2h-1v-1h-1v-2h-1v-1h-1v-2h-1v-1h-1v-2h-1v-1h-1v-2h-1v-1h-1v-2h-1v-1h-1v-1h-1v-2h-1v-1h-1v-2h-1v-1h-1v-2h-1v-1h-1v-1h-1v-2h-1v-1h-1v-2h-1v-1h-1v-1h-1v-2h-1v-1h-1v-2h-1v-1h-1v-1h-1v-2h-1v-1h-1v-2h-1v-1h-1v-1h-1v-2h-1v-1h-1v-2h-1v-1h-1v-1h-1v-2h-1v-1h-1v-1h-1v-1h-1v-2h-1v-1h-1v-1h-1v-1h-1v-2h-1v-1h-1v-1h-1v-2h-1v-1h-1v-1h-1v-1h-1v-2h-1v-1h-1v-1h-1v-1h-1v-2h-1v-1h-1v-1h-1v-2h-1v-1h-1v-1h-1v-1h-1v-2h-1v-1h-1v-1h-1v-1h-1v-2h-1v-1h-1v-1h-1v-1h-1v-2h-1v-1h-1v-1h-1v-1h-1v-1h-1v-1h-1v-2h-1v-1h-1v-1h-1v-1h-1v-1h-1v-1h-1v-1h-1v-2h-1v-1h-1v-1h-1v-1h-1v-1h-1v-1h-1v-2h-1v-1h-1v-1h-1v-1h-1v-1h-1v-1h-1v-1h-1v-2h-1v-1h-1v-1h-1v-1h-1v-1h-1v-1h-1v-2h-1v-1h-1v-1h-1v-1h-1v-1h-1v-1h-1v-1h-1v-1h-1v-1h-1v-1h-1v-1h-1v-1h-1v-1h-1v-1h-1v-1h-1v-2h-1v-1h-1v-1h-1v-1h-1v-1h-1v-1h-1v-1h-1v-1h-1v-1h-1v-1h-1v-1h-1v-1h-1v-1h-1v-1h-1v-1h-1v-1h-1v-1h-1v-1h-1v-1h-1v-1h-1v-1h-1v-2h-1v-1h-1v-1h-1v-1h-1v-1h-1v-1h-1v-1h-1v-1h-1v-1h-2v-1h-1v-1h-1v-1h-1v-1h-1v-1h-1v-1h-1v-1h-1v-1h-1v-1h-1v-1h-1v-1h-1v-1h-1v-1h-1v-1h-1v-1h-1v-1h-1v-1h-1v-1h-1v-1h-1v-1h-1v-1h-2v-1h-1v-1h-1v-1h-1v-1h-1v-1h-1v-1h-1v-1h-1v-1h-1v-1h-1v-1h-1v-1h-1v-1h-1v-1h-1v-1h-1v-1h-2v-1h-1v-1h-1v-1h-1v-1h-1v-1h-1v-1h-1v-1h-2v-1h-1v-1h-1v-1h-1v-1h-1v-1h-1v-1h-2v-1h-1v-1h-1v-1h-1v-1h-1v-1h-1v-1h-2v-1h-1v-1h-1v-1h-1v-1h-1v-1h-1v-1h-1v-1h-2v-1h-1v-1h-1v-1h-1v-1h-1v-1h-1v-1h-2v-1h-1v-1h-1v-1h-1v-1h-1v-1h-2v-1h-1v-1h-1v-1h-2v-1h-1v-1h-1v-1h-1v-1h-2v-1h-1v-1h-1v-1h-1v-1h-2v-1h-1v-1h-1v-1h-2v-1h-1v-1h-1v-1h-1v-1h-2v-1h-1v-1h-1v-1h-1v-1h-2v-1h-1v-1h-1v-1h-2v-1h-1v-1h-1v-1h-1v-1h-2v-1h-1v-1h-1v-1h-2v-1h-1v-1h-2v-1h-1v-1h-1v-1h-2v-1h-1v-1h-2v-1h-1v-1h-1v-1h-2v-1h-1v-1h-2v-1h-1v-1h-1v-1h-2v-1h-1v-1h-2v-1h-1v-1h-1v-1h-2v-1h-1v-1h-2v-1h-1v-1h-1v-1h-2v-1h-1v-1h-2v-1h-1v-1h-1v-1h-2v-1h-1v-1h-2v-1h-2v-1h-1v-1h-2v-1h-1v-1h-2v-1h-1v-1h-2v-1h-1v-1h-2v-1h-2v-1h-1v-1h-2v-1h-1v-1h-2v-1h-1v-1h-2v-1h-2v-1h-1v-1h-2v-1h-1v-1h-2v-1h-1v-1h-2v-1h-1v-1h-2v-1h-2v-1h-1v-1h-2v-1h-1v-1h-2v-1h-2v-1h-2v-1h-1v-1h-2v-1h-2v-1h-2v-1h-1v-1h-2v-1h-2v-1h-2v-1h-1v-1h-2v-1h-2v-1h-2v-1h-1v-1h-2v-1h-2v-1h-1v-1h-2v-1h-2v-1h-2v-1h-1v-1h-2v-1h-2v-1h-2v-1h-2v-1h-1v-1h-2v-1h-2v-1h-2v-1h-2v-1h-2v-1h-2v-1h-2v-1h-2v-1h-2v-1h-2v-1h-2v-1h-2v-1h-2v-1h-2v-1h-2v-1h-2v-1h-2v-1h-2v-1h-2v-1h-2v-1h-1v-1h-2v-1h-2v-1h-2v-1h-3v-1h-2v-1h-2v-1h-2v-1h-2v-1h-3v-1h-2v-1h-2v-1h-2v-1h-3v-1h-2v-1h-2v-1h-2v-1h-2v-1h-3v-1h-2v-1h-2v-1h-2v-1h-2v-1h-3v-1h-2v-1h-2v-1h-2v-1h-3v-1h-2v-1h-3v-1h-3v-1h-2v-1h-3v-1h-2v-1h-3v-1h-2v-1h-3v-1h-2v-1h-3v-1h-2v-1h-3v-1h-2v-1h-3v-1h-3v-1h-2v-1h-3v-1h-2v-1h-3v-1h-3v-1h-3v-1h-3v-1h-3v-1h-3v-1h-3v-1h-3v-1h-3v-1h-3v-1h-3v-1h-3v-1h-2v-1h-3v-1h-3v-1h-3v-1h-3v-1h-3v-1h-4v-1h-3v-1h-4v-1h-3v-1h-4v-1h-3v-1h-4v-1h-3v-1h-4v-1h-3v-1h-4v-1h-3v-1h-4v-1h-3v-1h-4v-1h-4v-1h-4v-1h-4v-1h-5v-1h-4v-1h-4v-1h-5v-1h-4v-1h-4v-1h-5v-1h-4v-1h-4v-1h-5v-1h-5v-1h-6v-1h-5v-1h-6v-1h-5v-1h-6v-1h-6v-1h-5v-1h-6v-1h-5v-1h-7v-1h-8v-1h-8v-1h-8v-1h-8v-1h-7v-1h-8v-1h-10v-1h-13v-1h-13v-1h-13v-1h-13v-1h-27v-1" fill="url(#f)"/></g></g><path d="m5037.16 2851.27c584.63 0 1058.83 476.84 1058.83 1065.41 0 588.58-474.2 1065.41-1058.83 1065.41-584.61 0-1058.81-476.83-1058.81-1065.41 0-588.57 474.2-1065.41 1058.81-1065.41zm0-56.32c-616.04 0-1115.14 502.37-1115.14 1121.73s499.1 1121.73 1115.14 1121.73c616.03 0 1115.13-502.37 1115.13-1121.73s-499.1-1121.73-1115.13-1121.73" fill="#fff"/><path d="m5037.16 4778.05c-472.87 0-856.19-385.64-856.19-861.37s383.32-861.38 856.19-861.38 856.19 385.65 856.19 861.38-383.32 861.37-856.19 861.37zm0 56.53c503.88 0 912.36-410.95 912.36-917.9s-408.48-917.9-912.36-917.9c-503.89 0-912.37 410.95-912.37 917.9s408.48 917.9 912.37 917.9" fill="#fff"/><g clip-path="url(#g)"><path d="m5037.16 4803.9c-487.05 0-881.88-397.21-881.88-887.22 0-490 394.83-887.22 881.88-887.22s881.87 397.22 881.87 887.22c0 490.01-394.82 887.22-881.87 887.22" fill="url(#h)"/></g><path d="m4732.14 3726.18c17.77-26.19 41.83-14.06 66.23-26.89 20.25-9.89 25.88-35.45 61.11-36.98 10.31-.04 23.91-.29 32.19 13.55 2.03 5.27 3.48 12-.33 18.76-10.14 18.03-33.52 7.24-45.49 17.14-6.21 8.7 1.64 21.75-7.85 29.65-13.87 10.14-33.97 15.06-56.56 13.33-27.99-2.14-59.97-6.61-49.3-28.56zm956.68 234.15c2.62-10.38 3.28-21.77-3.99-32.07-8.1-11.54-21.17-6.93-33.28-14.18-9.51-5.69-8.81-13-22.69-17.12-18.36-5.46-13.34 6.16-30.9-4.68-17.58-10.84-23.97-20.89-43.99-17.37-20 3.52-23.94 21.54-7.3 21.86 16.64.31 35.39 4 38.3 16.09 2.91 12.1-4.86 28.69 9.79 27.41 9.14-.8 20.07-6.22 24.9-5.89 18.24 1.26 25.8 2.45 34.28 7.75 5.82 3.62 11.5 9.87 8.78 15.17-4.72 9.26-41.52 10.75-44.12 23.31-2.59 12.58 8.27 31.08 22.6 26.29 14.38-4.79 22.62 26.31 16.37 39.23s-32.78 4.21-33.44 27.27c-.27 10.37 26.9 24.55 17.13 39.55s-27.44 12.62-46.07 21.71c-27.15 13.22-48.4 37.8-25.36 48.16 23.09 10.36 41.53 10.51 43.81-5.61 2.29-16.1 10.3-21.73 23.5-26.8 35.74-13.71 35.86-18.74 39.55-27.01 5.41-12.14-5.8-30.72-8.42-39.34-2.6-8.61 14.92-18.95 17.99-26.29 3.05-7.34 9-23.78-.78-29.99-9.79-6.22-11-20.25 1.5-24.89 12.54-4.63 24.3-18.01 23.67-25.02-.62-7.02-24.59-6.69-21.83-17.54zm-27.87-98.31c-15.12 4.5-.1 18.27 10.21 26.63 7.11 5.74 14.03 9.27 20.28 11.64 8.08 3.06 33.24-4.85 46.68-25.73 8.35-13.02-10.45-37.16-11.92-53.78-1.44-16.6 11.09-15.88 12.77-35 1.66-19.11-.74-17.23-16.62-27.47-15.52-10.03-24.16-22.1-28.1-39.24-1.88-4.55-2.35-9.62-6.66-15.38-6.19-8.26-17.13-13.66-34.75-12.12-17.6 1.54-29.65 3.9-36.99-1.99 0 0-19.43-16.34-53.63-9.41-25.59 5.19-14.46 34.99.39 40.19 23.9 8.36 35.08-4.38 50.88-10.97s23.38 1.88 31.15 12.94c7.75 11.07 18.12 5.96 28.51 15.51 10.39 9.54-1.09 17.38-4.33 26.82-3.28 9.43 28.79 17.06 33.4 23.19 4.65 6.13-12.17 16.75-15.32 27.48-3.16 10.73 23.79 22.73 18.17 36.29-5.61 13.56-25.51 4.85-44.12 10.4zm-168.23-152.57c11.37-3.51 28.87-2.38 29.46 14.35-1.86 18.9-23.67 22.12-35.35 17.79-11.21-3.33-20.12-21.24 5.89-32.14zm-159.02 710.68c11.35-3.52 28.87-2.39 29.45 14.35-1.85 18.9-23.69 22.11-35.35 17.79-11.21-3.34-20.11-21.25 5.9-32.14zm-134.57-573.43c11.35-3.52 28.87-2.39 29.45 14.34-1.85 18.9-23.69 22.12-35.35 17.8-11.21-3.34-20.11-21.24 5.9-32.14zm54.77 120.11c11.34-3.52 28.86-2.38 29.45 14.35-1.88 18.9-23.69 22.12-35.37 17.78-11.21-3.33-20.12-21.24 5.92-32.13zm-188.05 113.48c11.35-3.52 28.87-2.38 29.45 14.35-1.85 18.9-23.69 22.12-35.35 17.79-11.21-3.34-20.12-21.25 5.9-32.14zm292.32 135.96c11.35-3.53 28.85-2.39 29.44 14.34-1.86 18.9-23.67 22.12-35.35 17.79-11.22-3.33-20.12-21.24 5.91-32.13zm201.9-224.39c11.35-3.52 28.87-2.38 29.45 14.35-1.87 18.9-23.69 22.12-35.37 17.79-11.19-3.34-20.1-21.24 5.92-32.14zm49.51-223.69c11.35-3.51 28.87-2.38 29.43 14.35-1.83 18.9-23.67 22.12-35.35 17.79-11.21-3.34-20.12-21.24 5.92-32.14zm-178.03-135.56c3.3-1.03 7.27-1.57 11.02-1.21 10.15-.83 21.13 2.68 21.58 15.86-1.86 18.9-23.69 22.12-35.37 17.79-6.37-1.91-12.03-8.55-10.86-15.93-.94-5.33 2.23-11.75 13.63-16.51zm-349.72 707.02c11.32-3.53 28.84-2.38 29.41 14.34-1.84 18.9-23.67 22.12-35.35 17.79-11.21-3.33-20.12-21.24 5.94-32.13zm87.69 172.58c9.22-2.86 23.48-1.94 23.95 11.67-1.53 15.35-19.26 17.98-28.75 14.45-9.1-2.71-16.35-17.26 4.8-26.12zm584.57-563.23c-2.34-7.47-5.31-14.17 2.64-20.53 16.66-13.34 17.99-17.4 14.65-36.29s1.15-13.79 16.7-27.13c15.56-13.34 23.59-18.75 16.93-37.01s-15.22-12.53-16.33-30.32c-1.11-17.78 6.78-17.04 2.33-31.49-4.44-14.45-24.57-16.44-34.57-23.11-8.6-5.72-11.8-34.26-13.52-38.39-9.73-23.3-51.35-34.17-51.35-34.17s0-22.48-18.26-41.67c-18.24-19.19-64.37-14.98-64.37-14.98s-7.82-27.47-43.52-34.96c-10.39-2.18-21.84-1.76-31.76-.49-15.29 2.39-36.76 14.25-46.29-2.36-9.39-13.26-21.95-25.94-44.02-15.48-27.68 16.04-32.38 3.22-55.12 4.01-13.63 1.58-26.21 5.16-33.04 22.94-7.02 15.43-30.49 8.4-42.99 13.49-18.91 5.4-18.15 15.38-32.19 17.76-14.2 2.69-40.06-5.54-51.64-21.75-16.9-18.45-38.48-24-73.11-28.48-22.65-4.36-22.26-17.63-26.25-37.73-8.2-49.64-22.24-102.12 44.85-154.9 25.66-21.96 73.12-39.14 106.17-52.11 26.99-8.99 41.66-11.47 46.29-18.91 8.05-16.7-81.92-.61-134.42 11.06-23.16 5.24-32.03 1.81-35-5.7-3.67-8.78 21.08-12.65 30.98-22.94 2.07-3.16 1.6-8.2-1.84-8.03-12.81 1.18-24.06 4.39-36.42 8.71-20.14 6.24-62.91 26.73-57.99 2.49 2.5-13.85 51.64-60.53 43.79-64.88-5.23-3.49-17.25-2.72-23.95 3.96-25.19 22.94-67.46 54.53-102.16 55.33-39.63 1.38-47.8-5.57-76.76-15.26-46.66-15.62-77.25-19.42-80.37-12.37-4.46 7.42 64.18 26.11 66.79 53.78-1.42 6.71-5.76 7.67-7.85 7.91-30.15 1.19-65.7-18.98-92.97 1.58-35.93 1.98-82.53-10.01-122.18-2.5-8.26 1.38-7.5 8.06-2.76 11.17 20.26 12.41 39.67-1.67 128.42 31.47 36.02 15.38 62.44 25.82 85.76 53.06 31.55 40.21 34.38 100.32 25.39 133.27-12.67 36.41-32.3 53.87-123.69 58.32-40.15 4.11-47.89 31.97-93.36 30.46-36.36-2.52-37.34-32.72-61.33-39.83-14.33-5.44-29.18 6.66-47.73-.12-23.38-7.28-40-12.29-57.66-4.63-13.71 6.33-23.55 13.45-35.29 32.65-12.21 19.97-37.28 3.19-67.83 24.78-25.63 18.11-12.19 39.35-20 58.55-7.83 19.18-42.01 1.02-59.18 24.96-13.24 18.46 10.43 29.97-2.6 51.66s-44 15.76-45.88 41.07c-1.03 13.71 9.96 23.03 12.27 30.53 10.04 21.3-5.35 32.7-12.19 36.69-15.39 7.92-23.4 14.48-23.79 28.32-2.07 36.29 50.02 24.71 31.64 59.23-41.52 73.27 7.4 81.34 26.8 104.85 12.42 12.77 0 37.9 16.17 55.58 24.77 26.25 66.09 1.21 78.91 19.01 10.58 17.65-3.81 32.5-4.22 47.14-.28 33.11 44.3 30.52 42.22 62.82-5.39 23.33-7.77 44.32 9.75 60.11 22.83 21.52 43.58 13.44 65.06 16.61 17.34.79 11.91 29.22 38.79 43.96 32.93 17.34 44.57-11.64 61.56 4.7 27.23 15.5 43.36-5.54 60.7 15.03 11.8 29.47-37.38 30.27-14.02 58.15 18.07 20.27 14.02 28.08 11.13 42.71-2.46 12.27-4.18 24.18 6.64 33.05 14.26 12.79 35.92 2.95 42.93 19.96 3.73 12.26 8.38 26.53 17.89 36.42 9.09 9.1 16.72 9.85 35.41 11.04 23.97 1.98 35.73-4.24 58.87 16.52 23.54 31.65 74.59 9.36 95.72 17.05 59.89 21.14 71.84 2.94 95.4-8.53 20.23-7.12 25.66-1.1 55.82-8.02 35.93-12.86 23.32-31.35 52.44-42.82 35.45-12.31 54.35-2.6 73.02-19.55 21.72-23.39 11.25-37.58 19.85-63.03 6.6-16.61 23.63-20.7 52.73.12 33.4 20.19 34.92-24.73 64.03-21.3 13.67 1.82 17.4 10.93 37.93 13.81 14.06 1.45 22.07-5.53 31.87-17.44 10.02-14.96 23.83-11.67 35.59-19.3 12.14-8.36 12.22-23.93 11.83-35.56.39-8.44-.97-13.44 8.75-20.25 12.19-6.9 42.74-7.8 54.34-33.66 6.29-12.99 4.41-25.24-1.08-36.85-18.14-39.36-62.18-23.32-69.92-11.17-7.6 11.95-8.1 19.51-4.04 31.22 4.04 11.72 1.35 29.95-19.06 29.95-20.39 0-36.68-10.39-40.76 2.6-4.09 13.01-20.42 18.19-29.93 10.4s-9.51-35.14 9.51-32.53c19.05 2.61 42.15 3.91 40.79-10.42-1.37-14.32-29.93-35.13-10.88-39.04 19.04-3.9 38.1 6.51 44.88-6.51s-19.04-27.32-14.96-37.74c4.08-10.41 21.76-19.53 17.67-26.04-4.08-6.51-35.35-16.9-31.28-26.01 4.1-9.12 29.92-16.93 20.41-27.35-9.52-10.41-34.01-5.23-40.8-16.93-6.78-11.69-13.58-20.79-29.89-15.59-16.33 5.18-28.55 16.9-51.66 6.48-14.33-6.46-25.88-33.07 0-36.44 42.99-5.58 55.72 10.42 55.72 10.42 6.8 6.51 19.03 5.21 36.72 5.21 17.66 0 39.42 6.53 38.07 16.92-1.37 10.4 8.14 20.82 20.37 28.63 12.23 7.82 23.13 26.02 13.59 37.74-1.67 2.06-3.2 4.24-4.57 6.47-7.22 16.28-2.07 40.53 14.61 47.36 41.25 16.89 59.61-14.4 67.21-21.97 10.68-10.69 14.51-23.87 40.82-26.88 49.2-7.14 20.37-36.83 46.68-54.87 21.29-8.36 27.74-6.1 35.33-30.15 11.37-21.05 20.82-14.14 27.89-24.05 11.27-15.78 1.51-22.55 10.51-36.83 8.42-13.31 18.87-17.69 20.31-36.16 1.45-18.47-12.93-24.83-15.82-37.22-2.87-12.39 8.52-20.11 8.52-38.57 0-14.96-12.42-15.5-20.94-23.95zm-436.01-150.71c22.46-5.6 51.91-5.11 53.12 7.05 1.19 12.17 16.17 20.92 33.93 25.87 17.73 4.94 36.66 22.05 27.89 38.3-8.79 16.24-11.31 35.6 4.7 40.98 16.02 5.37 41.88 20.76 43.07 32.96 1.21 12.18-40.88 27.36-52.11 41.09s-4.8 24.59 3.65 36.54c8.44 11.95 10.16 33.38-15.74 39.84-25.92 6.45-49.53-.12-51.05 15.85-.16 1.67-1.98 7.34-3.36 9.74-6.45 10.28-20.59 15.97-31.7 11.46-14.28-5.78-21.97-36.65 2.93-39.74 24.9-3.08 54.59-8.92 48.85-24.67-5.79-15.73-47.89-30.19-24.81-40.62 23.07-10.44 50.2-4.72 55.16-21.56 4.92-16.85-31.88-24.82-29.63-37.88 2.24-13.04 22.13-28.93 15.12-34.99-7.02-6.06-49.67-7.89-47.06-19.47 2.62-11.58 33.25-28.58 18.21-37.33-15-8.74-44.65 4.87-56.56-6.19-11.88-11.06-17.06-31.63 5.39-37.23zm-209.46 187.33c8.44 6.02 23.56 4.82 45.47 4.82 21.92 0 48.91 6.04 47.21 15.66s10.1 19.26 25.25 26.49c15.16 7.22 28.66 24.07 16.86 34.91s-18.54 25.3-5.06 32.53c13.48 7.22 33.71 24.07 32.03 33.71s-43.87 13.25-57.3 21.69c-13.48 8.43-10.08 18.05-5.04 28.89 2.3 4.99 2.85 11.27.29 16.59 6.43.71 14.45.32 24.12.32 17.68 0 39.45 6.53 38.09 16.93-1.37 10.4 8.12 20.81 20.37 28.62 12.24 7.81 23.1 26.02 13.59 37.74s-14.94 27.34-4.08 35.16c10.88 7.81 27.19 26.01 25.84 36.43-1.35 10.41-35.37 14.32-46.23 23.43-10.86 9.12-8.13 19.52-4.06 31.23 4.06 11.72 1.36 29.95-19.03 29.95-20.41 0-36.72-10.4-40.78 2.6-4.08 13.01-20.39 18.19-29.92 10.4s-9.53-35.14 9.53-32.53c19.02 2.6 42.11 3.91 40.76-10.42-1.34-14.32-29.9-35.12-10.88-39.03 19.05-3.92 38.09 6.5 44.89-6.52 6.75-13.01-19.05-27.32-14.96-37.73 4.06-10.42 21.75-19.54 17.67-26.04-4.08-6.52-35.37-16.91-31.27-26.02 4.06-9.12 29.92-16.93 20.39-27.34-9.53-10.43-34.02-5.24-40.8-16.93-6.78-11.7-13.57-20.8-29.9-15.6-16.31 5.18-27.07 12.66-51.64 6.48-29.45-7.4-21.6 4.1-43.2 2.01-30.63-2.97-11.8-32.51 11.79-30.1 5.47.56 11.21 1.06 16.78 1.32 1.62-4.64 6.07-8.37 14.63-9.66 6.33-.96 12.89-.82 19.2-.07-1.76-14.48-37.15-33.73-13.56-37.34 23.62-3.62 47.23 6.02 55.63-6.03 8.4-12.04-23.59-25.27-18.54-34.92 5.04-9.63 26.96-18.06 21.92-24.09-5.08-6.02-43.83-15.64-38.79-24.07 5.08-8.44 37.11-15.66 25.29-25.3-11.8-9.64-42.17-4.84-50.56-15.66-8.4-10.83-16.84-19.23-37.06-14.44-20.21 4.8-35.39 15.64-64.02 6.01-17.75-5.99-25.25-33.46 6.74-37.07s62.34 12.99 62.34 12.99zm-213-199c-2.08-24.13 33.43-19.38 40.46-35.21-2.22-17.8 12-28.87 26.88-35.99 12.79-7.52 25.39-3.79 42.54-14.24 15.12-6.46 18.47-36.04 50.39-14.24 26.07 19.11-16.52 50.63 2.07 77.92 5.6 10.82.94 20.27-9.92 22.55-11.72 2.18-18.21-2.53-19.83-13.06-5.37-16.22-6.66-45.75-29.74-42.71-19.79 3.1-25.61 28.08-25.61 47.46-1.82 17.14-39 17.8-48.73 18.98-12.99.8-24.37 0-28.51-11.46zm261.28-13.94c-2.89-10.67-2.22-20.96-8.67-31.25-6.64-8.82-11.95-17.21-12.5-27.97-3.24-12.11-22.19-21.86-14.35-36.89 4.96-7.12 15.41-19.78 38.84-10.28 25.2 11.07-1.36 42.86 35.51 56.95 6.25 2.33 17.54 3.94 19.85 12.27 1.64 15.82-15.71 26.1-7.86 41.92 2.47 3.96 10.98 4.62 7.04 12.27-7.47 6.71-20.63 8.93-30.55 6.95-14.59-3.41-23.59-10.12-27.31-23.97zm106.63-26.49c3.73-9.1 9.55-12.55 2.05-30.46-10.59-16.8-30.43-13.96-39.12-30.57-3.72-8.71 4.58-17.23 14.35-18.08 17.34-1.58 29.3 13.19 42.54 24.92 7.42 8.04 11.5 11.5 21.89 11.47 9.09.4 23.54-10.28 26.45 4.75-1.66 28.08-44.2 31.25-44.63 61.7-4.84 11.93-39.34 3.33-23.53-23.73zm-824.26-348.59c-.45 11.11 6.31 18.64 22.32 23.35 95.84 24.36 256.29 50.88 406.56 62.77 4.22.34 6.88-2.66 6.04-6.82-2.66-13.14-6.86-26.39-12.91-38.85-.51-1.04-3.5-3.09-4.65-3.19-286.37-24.25-388.12-51.99-388.12-51.99-12.04-2.55-28.62-.5-29.24 14.73zm753.69 38.3c-1.15.1-4.14 2.15-4.65 3.19-6.27 12.87-8.32 24.87-9.26 38.56-.25 3.65 2.48 6.36 6.14 6.07 150.27-11.89 340.72-38.41 436.56-62.77 16.01-4.71 22.77-12.24 22.32-23.35-.62-15.23-17.2-17.28-29.24-14.73 0 0-135.5 28.78-421.87 53.03" fill="#09301c" fill-rule="evenodd"/><path d="m6527.99 3424.69c38.16 77.12 105.66 183.62 146.05 333.86 49.03 182.34 43.05 294.01 43.05 294.01l56-63.1s18.53-17.41-2.68-122.18c-11.45-63.82-46.33-182.4-74.24-241.96-118.81-253.48-200.7-277.09-200.7-277.09s34.53 33.45 32.52 76.46zm-84.3-16.44c27.27 40.32 22.13 80.1 26.92 101.17 36.95 80.01 92.03 186.27 121.81 329.75 40.63 195.73 30.22 303.17 30.22 303.17l62.5-56.26s16.36-17.15 2.5-115.31c-8.83-62.18-35.2-195.76-61.53-271.6-21.93-63.21-66.99-148.48-101.54-216.69-38.53-69.61-66.39-71.79-80.88-74.23zm-75.86 162.77c34.46 86.07 115.31 194.84 144.98 362.46 36.02 203.43 21.43 317.48 21.43 317.48l63.75-67.25s10.66-3.65 2.5-91.83c-7.03-75.93-39.81-252.29-66.8-328.15-45.08-126.51-68.36-155.74-94.35-179.84.84 29.15 6.58 29.99 6.58 29.99s-38.67 1.37-78.09-42.86zm-81.52-87.23s-14.26 27.62 5.33 111.32c19.59 83.69 100.22 244.63 124.08 451.32 23.87 206.71 28.17 294.97 28.17 294.97l36.58-35.54s17.28-7.15 16.62-68.88c-.9-85.3-17.23-236.7-40.04-335.1-19-82-77.07-249.65-115.86-329.31-41.44-85.09-54.88-88.78-54.88-88.78zm36.13-122.38s-20.27 25.18 20.47 97.5c40.78 72.32 87.97 114.49 87.97 114.49s11.64-35.28 14.04-75.37-3.85-92.25-42.13-117.24-80.35-19.38-80.35-19.38zm-24.22-99.37s14.3 39.08 64.61 63.25c50.31 24.16 56.47 21.53 81.06 32.55 24.61 11.01 39.8 33.23 39.8 33.23s7.6-59.48-34.16-98.84c-41.74-39.37-91.89-49.32-119.43-46.96-27.56 2.37-31.88 16.77-31.88 16.77zm-88.08-116.35s16.99 37.98 68.88 58.58c51.9 20.6 62.93 27.47 88.23 36.74 25.31 9.27 35.05 19.19 35.05 19.19s5.3-58.6-39.1-94.95c-44.39-36.36-95.09-42.79-122.42-38.51-27.32 4.28-30.64 18.95-30.64 18.95zm-128.83-96.35s34.76 24.61 88.77 38.73c54 14.13 66.35 22.3 92.58 28.41 26.25 6.13 37.13 14.79 37.13 14.79s-2.43-61.52-50.9-92.18c-48.52-30.68-99.61-30.89-126.21-23.31-26.61 7.58-41.37 33.56-41.37 33.56zm-110.35-97.42s32.28 23.32 92.18 34.33c59.89 11 71.61 15.6 100.67 20.2 29.06 4.61 41.44 12.64 41.44 12.64s-3.65-58.45-58.36-86.29c-54.72-27.85-110.74-25.12-139.47-16.02-28.73 9.09-36.46 35.14-36.46 35.14zm-121.72-72.39s32.01 28.32 92.89 26.63c60.86-1.69 75.82-.99 105.19-2.52 29.38-1.54 43.17 3.73 43.17 3.73s-18.24-55.05-77.58-70.91c-59.3-15.86-113.52-1.54-139.73 13.32-26.21 14.88-23.94 29.75-23.94 29.75zm387.28 414.17s-19.94 56.86-10.13 126.35c9.8 69.49 31.68 100.35 31.68 100.35s20.91-54.24 36.68-98.1c15.76-43.86 20.21-72.1 5.89-102.58-14.33-30.48-64.12-26.02-64.12-26.02zm-88.18-130.08s-16 58.35-3.77 127.45c12.23 69.11 34.69 98.36 34.69 98.36s25.92-62.83 40.13-107.22c14.22-44.39 12.68-71.87-9.57-97.15-26.28-29.89-61.48-21.44-61.48-21.44zm-99.28-97.92s-13.2 57.19 3.48 122.55c16.68 65.35 40.06 91 40.06 91s20-56.36 31.29-99.93c11.29-43.56 6.21-77.32-12.27-99.6-20.78-25.09-62.56-14.02-62.56-14.02zm-110.45-94.93s-2.44 56.48 20.9 116.31c23.36 59.82 46.02 81.78 46.02 81.78s18.2-57.99 23.83-100.47c5.62-42.48-3.15-58.5-22.7-82.59-19.53-24.09-68.05-15.03-68.05-15.03zm-124.96-55.04s4.3 53.39 34.03 105.82c29.76 52.43 52.96 69.3 52.96 69.3s11.45-53.72 12.35-93.73c.9-40.02-12.76-60.28-34.79-80.11-22.05-19.84-64.55-1.28-64.55-1.28" fill="#231f20"/><g clip-path="url(#i)"><path d="m5810.68 2916.02s-6.95 67.33 22.78 119.76c29.74 52.43 67.46 56.45 67.46 56.45s-6.41-36.19-5.51-76.2-9.39-64.96-31.45-84.8c-22.03-19.84-53.28-15.21-53.28-15.21zm649.26 601.56c36.51 81.41 88.83 194 118.24 335.82 40.65 195.72 33.28 320.69 33.28 320.69l73.72-87.61s-22.43-215.53-74.85-376.1c-20.78-63.6-62.42-144.5-96.97-212.71-29.04-48.81-54.2-75.79-69.82-89.63 16.79 26.9 19.68 62.8 17.92 92.2-.35 5.94-.89 11.75-1.52 17.34zm-138.61-156.53s-33.38 39.76 7.36 112.08c40.76 72.33 102.23 100.6 102.23 100.6s-2.62-21.39-.22-61.48c2.41-40.08-3.86-92.25-42.13-117.23-38.28-24.99-67.24-33.97-67.24-33.97zm-37.35-84.79s14.32 39.08 64.63 63.25c50.32 24.17 77.74 23.38 102.35 34.39 24.59 11.02 33.63 21.6 33.63 21.6s-7.54-49.69-49.28-89.05-91.89-49.32-119.43-46.95c-27.56 2.36-31.9 16.76-31.9 16.76zm-88.06-116.35s16.99 37.99 68.88 58.58c51.88 20.61 79.2 17.9 104.5 27.18 25.29 9.27 35.06 19.19 35.06 19.19s-10.98-49.04-55.38-85.39c-44.39-36.36-95.09-42.79-122.44-38.5-27.3 4.27-30.62 18.94-30.62 18.94zm-115.57-107.36s21.51 35.63 75.51 49.75 80.78 8.12 107.01 14.24c26.25 6.11 37.15 14.78 37.15 14.78s-16.88-47.34-65.35-78.01c-48.52-30.67-99.61-30.88-126.21-23.3s-28.11 22.54-28.11 22.54zm-116.74-97.43s25.39 34.35 85.3 45.35c59.9 11 88.92 3.47 117.98 8.07 29.07 4.6 41.43 12.63 41.43 12.63s-20.94-46.3-75.66-74.15c-54.73-27.85-110.73-25.12-139.48-16.03-28.71 9.1-29.57 24.13-29.57 24.13zm-128.59-61.37s31.99 28.32 92.87 26.63 87.7-15.09 117.09-16.63c29.38-1.54 43.16 3.73 43.16 3.73s-30.11-40.93-89.45-56.8c-59.3-15.86-113.51-1.54-139.73 13.33-26.21 14.87-23.94 29.74-23.94 29.74zm399.22 399.35s-31.88 71.69-22.07 141.18c9.8 69.48 45.45 88.57 45.45 88.57s7.15-42.46 22.91-86.33c15.74-43.87 14.88-75.44.54-105.93-14.33-30.47-46.83-37.49-46.83-37.49zm-86.76-129.66s-29.35 72.76-17.13 141.86c12.23 69.1 48.5 86.93 48.5 86.93s5.66-42.68 19.88-87.07 12.25-75.92-3.12-105.88c-15.4-29.97-48.13-35.84-48.13-35.84zm-101.29-98.17s-24.57 71.85-7.87 137.2c16.68 65.35 54.02 79.84 54.02 79.84s2.87-41.33 14.16-84.89c11.31-43.56 7.29-73.64-10-101.25-17.3-27.62-50.31-30.9-50.31-30.9zm-109.37-94.53s-14.89 70.74 8.47 130.56c23.36 59.83 60.32 69.19 60.32 69.19s-2.07-39.39 3.55-81.87c5.63-42.48-1.68-70.44-21.21-94.53s-51.13-23.35-51.13-23.35" fill="url(#k)"/></g><path d="m5630.18 2828.55c97.24 36.24 144.88 56.37 148.51 68.18 3.61 11.8 9.3 42.17 8.83 33.21-.47-8.98 2.97-40.14 33.36-59.77 22.07-14.25 50.47-18.21 45.55-31.12-4.5-11.84-30.12-21.51-70.39-11.69-20.26 4.94-20.32 13.06-33.99 9.28-11.78-3.25-38.83-12.46-114.53-37.69 17.77 4.18 24.32 5.06 5.66-1.26 36.64 3.47 84.07 4.19 145.43-.56 22.58-1.75 90.35-12.94 112.82-17.21 10.52 4.17 24.1 9.36 40.37 15.53 31.93 12.1 65.76-19.95 224.57 5.21 104.45 16.56 185.25 117.42 185.25 117.42s-60.37-20.22-54.98 44.4c3.05 36.44 5.84 110.39 51.97 104.52 30.08-3.83 12.39-25.75 55.12-32.05 36.58-5.4 2.73 44.5 37.89 96.58 41.41 61.41 109.18 51.27 150.98 23.92 38.32-25.08-45.72-47.67-3.4-65.84 58.28-25.03 106.23 60.85 222.85 86.34 203.22 44.39 43.79-91.73 98.05-102.42 15.74-3.09 24.51-3.44 62.42.71 195.51 21.4 282.75-76.4 244.41-105.25-24.64-18.52-79.92-53.63-79.92-53.63s-22.38-20.06-37.62-32.35c-81.11-65.37-208.59 39.71-193.96-35.8 10.21-52.74 203.3-1.86 113.2-78.48-19.78-16.82-47.79-41.12-75.21-48.95-61.76-17.62-111 .56-111 .56s-33.18 10.52-48.65-.44c-26.76-18.92 72.52-33.38 59.73-59.09-8.05-16.12-67.46-25.49-110.16-24.07-45.64 1.52-81.88 23.19-81.88 23.19s-56.4 32.36-70.68 8.55c-9.59-16.02 16.58-30.84 5.78-47.53-12.6-19.44-152.44-13.74-212.6 46.07-35.07 34.88-48.94 90.07-49.53 106.03-1.54 41.26 117.05 106.07 150.08 118.45 5.61 2.1 32.7-39.79 101.68-67.44 85.86-34.44 153.87-28.94 162.93-29.79 28.95-2.72 23.95 1-7.85 5.68-50 10.16-148.16 23.28-189.32 72.84-5.88 7.08-15.66 12.33-18.24 18.94-1.17 3.01 5.39 7.17 10.33 9.17 12.85 5.19 38.54 15.37 57.19 21.48 63.59 20.86 134.3 45.16 198.85 50.6 22.15 1.87 27.95 3.03 128.98-33.48 13.97-5.05 33.81-21.33 34.71-14.03.98 7.73 10.08 10.72-26.91 26.94-23.01 10.08-66.29 27.64-55.84 30.42 3.88 1.04 41.44-3.95 101.46-1.89 50.86 1.74 106.48-1.99 106.48-1.99s47.95-4.61 50.36 1.69c3.71 9.71-17.46 19.55-33.56 21.26-91.4 9.66-291.21-2.65-364.22-15.96-140.9-25.7-219.14-55.74-347.03-120.24-49.9-25.17-80.23-48.76-124.41-71.09-39.98-20.22-85.31-33.99-142.74-43.02-31.6-4.97-67.3-4.83-101.44-2.44 136.91-46.37 249.88-106.16 315.9-129.3 189.59-66.41 337.98-62.86 481.19-34.42 143.2 28.44 234.37 125.88 234.37 125.88s-24.47-184.35-285.88-235.25c-384.76-74.92-685.82 192.31-830.23 238.89-74.26 23.95-146.48 38.13-209.53 46.29-15.28 1.15-61.27 6.42-92.15 8.51-33.63 1.85-61.64 1.96-82.01 1.4-102.72-26.01-223.5-36.75-207.25-21.31 18.95 17.98 145.78 28.75 279.85 78.71" fill="#231f20"/><path d="m5600.06 2794.75c120.62-2.83 216.48-40.33 303.9-78.46 131.68-57.42 197.58-169.17 277.15-225.21 62.13-43.77 166.1-62.96 208.68-69.27 11.93-1.76 13.98-9.37-1.41-11.41-45.94-6.09-153.67-12.72-274.73 18.59-161.58 41.8-176.76 183.74-281.01 265.69-46.64 36.66-66.49 51.82-125.1 71.55-40.66 13.69-83.93 18.91-107.48 28.52" fill="#231f20"/><path d="m5936.82 2970.74s-14.89 70.74 8.47 130.56c23.36 59.83 60.32 69.19 60.32 69.19s-2.07-39.39 3.55-81.87c5.63-42.48-1.68-70.44-21.21-94.53s-51.13-23.35-51.13-23.35zm109.37 94.53s-24.57 71.85-7.87 137.2c16.68 65.35 54.02 79.84 54.02 79.84s2.87-41.33 14.16-84.89c11.31-43.56 7.29-73.64-10-101.25-17.3-27.62-50.31-30.9-50.31-30.9zm101.29 98.17s-29.35 72.76-17.13 141.86c12.23 69.1 48.5 86.93 48.5 86.93s5.66-42.68 19.88-87.07 12.25-75.92-3.12-105.88c-15.4-29.97-48.13-35.84-48.13-35.84zm86.76 129.66s-31.88 71.69-22.07 141.18c9.8 69.48 45.45 88.57 45.45 88.57s7.15-42.46 22.91-86.33c15.74-43.87 14.88-75.44.54-105.93-14.33-30.47-46.83-37.49-46.83-37.49zm-399.22-399.35s31.99 28.32 92.87 26.63 87.7-15.09 117.09-16.63c29.38-1.54 43.16 3.73 43.16 3.73s-30.11-40.93-89.45-56.8c-59.3-15.86-113.51-1.54-139.73 13.33-26.21 14.87-23.94 29.74-23.94 29.74zm128.59 61.37s25.39 34.35 85.3 45.35c59.9 11 88.92 3.47 117.98 8.07 29.07 4.6 41.43 12.63 41.43 12.63s-20.94-46.3-75.66-74.15c-54.73-27.85-110.73-25.12-139.48-16.03-28.71 9.1-29.57 24.13-29.57 24.13zm116.74 97.43s21.51 35.63 75.51 49.75 80.78 8.12 107.01 14.24c26.25 6.11 37.15 14.78 37.15 14.78s-16.88-47.34-65.35-78.01c-48.52-30.67-99.61-30.88-126.21-23.3s-28.11 22.54-28.11 22.54zm115.57 107.36s16.99 37.99 68.88 58.58c51.88 20.61 79.2 17.9 104.5 27.18 25.29 9.27 35.06 19.19 35.06 19.19s-10.98-49.04-55.38-85.39c-44.39-36.36-95.09-42.79-122.44-38.5-27.3 4.27-30.62 18.94-30.62 18.94zm88.06 116.35s14.32 39.08 64.63 63.25c50.32 24.17 77.74 23.38 102.35 34.39 24.59 11.02 33.63 21.6 33.63 21.6s-7.54-49.69-49.28-89.05-91.89-49.32-119.43-46.95c-27.56 2.36-31.9 16.76-31.9 16.76zm37.35 84.79s-33.38 39.76 7.36 112.08c40.76 72.33 102.23 100.6 102.23 100.6s-2.62-21.39-.22-61.48c2.41-40.08-3.86-92.25-42.13-117.23-38.28-24.99-67.24-33.97-67.24-33.97zm-35.33 122.05s-23.77 56.22-4.18 139.92c19.61 83.69 89.72 229.85 113.59 436.55s4.73 338.64 4.73 338.64l84.22-92.44s-3.25-227.59-42.54-397.17c-39.3-169.59-155.82-425.5-155.82-425.5zm76.95 82.57c34.45 86.07 95.98 214.41 125.64 382.04 36.02 203.42 24.52 333.29 24.52 333.29l79.08-91.04s-16.55-224-65.88-390.88c-19.53-66.1-53.32-144.76-86.99-215.64.86 29.15 3.67 44.54 3.67 44.54s-40.63-18.08-80.04-62.31zm96.99-48.09c36.51 81.41 88.83 194 118.24 335.82 40.65 195.72 33.28 320.69 33.28 320.69l73.72-87.61s-22.43-215.53-74.85-376.1c-20.78-63.6-62.42-144.5-96.97-212.71-29.04-48.81-54.2-75.79-69.82-89.63 16.79 26.9 19.68 62.8 17.92 92.2-.35 5.94-.89 11.75-1.52 17.34zm55.31-87.21c38.15 77.13 104.18 192.16 144.57 342.41 49.03 182.33 48.91 290.43 48.91 290.43l64.41-73.32s-23.1-205.04-91.21-350.34c-118.79-253.48-189.7-293.51-189.7-293.51s25.02 41.32 23.02 84.33zm-704.57-514.35s-6.95 67.33 22.78 119.76c29.74 52.43 67.46 56.45 67.46 56.45s-6.41-36.19-5.51-76.2-9.39-64.96-31.45-84.8c-22.03-19.84-53.28-15.21-53.28-15.21zm-134.43-133.58c42.62-3.79 119.08-23.07 205.14-64.23 157.97-75.57 197.57-173.13 277.15-230.76 62.14-45.01 166.11-66.28 208.67-73.44 11.93-2.01 13.98-9.66-1.41-11.38-45.94-5.17-156.21-6.12-277.26 27.61-161.61 45.03-176.14 190.9-278.48 267.78-69.38 52.12-106.72 68.93-169.75 86.41-41.76 1.55-73.77.48-91.68-.7-97.13-26.04-217.63-43.99-201.66-28.83 18.93 17.97 134.92 37.92 268.99 87.88 97.22 36.24 144.88 56.36 148.51 68.17 3.62 11.81 24.3 34.72 23.83 25.74-.47-8.97-7.21-33.14 6.09-55.8 13.29-22.67 53.4-29.27 42.47-37.69-10.94-8.43-35.98-10.12-55.04-1.62-19.05 8.5-20.32 13.06-33.99 9.28-11.21-3.09-41.91-14.54-111.68-38.2 36.6 3.48 84.05 4.2 145.39-.55 22.58-1.75 90.35-12.94 112.82-17.22 10.54 4.17 24.1 9.37 40.39 15.53 31.91 12.1 65.78-19.94 224.57 5.22 104.45 16.55 163.2 99.49 163.2 99.49s-38.32-2.29-32.93 62.32c3.05 36.45 10.8 99.64 56.93 93.77 30.06-3.82 4.26-27.78 46.98-34.09 36.6-5.4 5.93 57.29 41.05 109.38 41.43 61.41 109.2 51.26 150.98 23.92 38.32-25.08-45.71-47.67-3.4-65.85 58.28-25.03 106.25 60.86 222.89 86.34 203.2 44.4 43.77-91.72 98.01-102.41 15.74-3.1 24.53-3.44 62.44.71 195.49 21.4 282.75-76.41 244.39-105.25-24.63-18.52-79.9-53.63-79.9-53.63s-22.36-20.07-37.64-32.35c-81.09-65.37-208.59 39.71-193.94-35.8 10.23-52.74 203.28-1.86 113.2-78.48-19.76-16.83-47.81-41.13-75.23-48.95-61.72-17.63-110.98.56-110.98.56s-33.16 10.52-48.67-.44c-26.74-18.93 72.54-33.38 59.73-59.1-8.03-16.12-67.47-25.49-110.16-24.06-45.63 1.52-81.84 23.19-81.84 23.19s-56.42 32.35-70.7 8.54c-9.61-16.01 16.56-30.83 5.78-47.52-12.58-19.45-152.44-13.74-212.6 46.06-35.07 34.89-48.96 90.08-49.55 106.03-1.52 41.27 112.11 86.9 145.12 99.28 5.63 2.1 10.49 1.97 13.32-.24 14.38-11.25 53.63-48.95 85.74-62.75 29.61-12.71 59.92-21.09 91.39-27.91 16-3.46 32.75-4.93 41.86-5.78 28.92-2.71 29.82 7.46-1.96 12.14-50 10.15-119.9 29.93-161.05 79.49-5.86 7.08-12.54 17.85-15.12 24.46-1.17 3.01 5.39 7.17 10.35 9.17 12.85 5.19 38.52 15.37 57.15 21.48 63.59 20.86 103.52 29.25 168.05 34.69 22.15 1.87 56.68 4.29 157.73-32.22 13.95-5.05 39.18-18.9 40.08-11.6.98 7.73-14.49 17.88-51.48 34.1-23.01 10.09-69.58 22.71-59.15 25.49 3.89 1.03 66.02 6.04 126.04 8.1 50.84 1.74 106.46-2 106.46-2s47.97-4.6 50.38 1.7c3.71 9.71-35.77 14.29-51.86 15.99-91.39 9.67-272.89 2.62-345.94-10.7-140.9-25.7-219.14-55.73-347.03-120.23-49.88-25.17-80.23-48.77-124.41-71.1-39.96-20.21-85.3-33.98-142.74-43.02-31.58-4.96-67.28-4.82-101.44-2.43 136.93-46.37 257.87-117.99 323.9-141.12 189.57-66.42 335.75-79.22 478.95-50.78s222.03 101.83 222.03 101.83-2.34-156-263.52-208c-349.19-69.49-674.04 218.13-818.43 264.71-103.6 33.41-202.74 47.05-278.6 51.98z" fill="url(#l)" fill-rule="evenodd"/><path d="m4508.77 2802.74c-120.66-5.24-213.05-53.75-303.93-84.53-137.05-46.43-197.55-173.13-277.13-230.76-62.14-45.01-166.13-66.28-208.69-73.44-11.93-2.01-13.98-9.66 1.41-11.38 45.96-5.17 153.65-9.64 274.71 24.09 161.6 45.03 176.77 187.27 281.03 271.3 46.62 37.59 66.49 53.15 125.1 74.06 40.66 14.5 83.94 20.59 107.5 30.66zm-263.05 115.39s28.71 62.89-1.01 115.32c-29.75 52.43-84.65 54.49-84.65 54.49s23.59-34.22 22.69-74.23c-.89-40.01 9.42-64.97 31.45-84.81s31.52-10.77 31.52-10.77zm-694.08 532.19c-38.14 77.14-101.62 179.9-142.01 330.15-32.03 119.03-46.33 234.54-50.22 283.34-2.07 25.94-15.91-4.77-15.91-4.77l-35.53-41.91s27.07-228.52 95.17-373.82c118.79-253.48 160.14-292.47 160.14-292.47s-16.56 47.46-11.64 99.48zm56 83.12c-11.08 24.72-13.09 29.76-26.02 60.18-29.61 69.75-49.41 121.6-76.5 218.75-18.89 67.75-30.73 145.74-35.69 192.4-5.7 53.32-12.54 137.73-12.79 164.2-.21 22.01-13.85.92-13.85.92l-41.72-83.41s22.43-215.53 74.85-376.1c20.76-63.6 33.9-122.39 68.44-190.59 29.06-48.81 78.96-133.09 68.18-105.68-19.83 50.39-9.59 106.48-4.9 119.33zm85.35 35.59c-14.69 36.64 11.62-34.88-2.07 16.87-18.46 69.78-79.26 214.17-107.97 368.65-17.58 94.49-23.01 169.34-26.07 260.61-.22 15.9-.38 34.98-.2 46.43-1 33.66-12.56 18.66-12.56 18.66l-50.08-90.29s16.55-224 65.86-390.88c19.55-66.1 23.01-136.07 56.68-206.96-.84 29.15 26.66 35.86 26.66 35.86s10.33-14.72 49.75-58.95zm78.44-85.52s42.96 46.03 23.36 129.72c-19.59 83.7-92.23 232.8-116.1 439.5-9.53 82.43-15.43 186.03-11.56 289.93.82 15.23.47 24.34 1.21 39.57 1.48 35.52-12.42 14.61-12.42 14.61l-54.1-73.48s-1.45-250.41 37.85-420c39.29-169.58 131.76-419.85 131.76-419.85zm-36.22-122.07s55 37.05 14.26 109.37-122.97 102.34-122.97 102.34 23.36-23.13 20.98-63.22c-2.42-40.09 3.85-92.25 42.13-117.24 38.26-24.99 45.6-31.25 45.6-31.25zm67.04-85.18s-14.3 39.08-64.61 63.25c-50.34 24.17-103.75 26.34-128.32 37.35-24.61 11.02-33.48 13.02-33.48 13.02s33.32-44.07 75.08-83.43 91.89-49.32 119.45-46.95c27.54 2.36 31.88 16.76 31.88 16.76zm83.16-117.57s-16.99 37.98-68.87 58.58c-51.89 20.6-101.89 15.55-127.18 24.82-25.32 9.27-25.2 3.45-25.2 3.45s23.79-30.94 68.2-67.29c44.38-36.36 95.1-42.79 122.43-38.52 27.3 4.29 30.62 18.96 30.62 18.96zm114.02-109.53s-21.52 35.63-75.5 49.76c-54.03 14.13-90.82 3.92-117.07 10.03-26.23 6.12-26.04 0-26.04 0s22.27-24.97 70.76-55.64c48.48-30.67 93.15-34.26 119.73-26.69 26.6 7.59 28.12 22.54 28.12 22.54zm114.61-92.82s-25.39 34.35-85.29 45.36c-59.9 11-96.6-8.22-125.68-3.62-29.07 4.61-17.15-4.9-17.15-4.9s4.35-17.09 59.08-44.93c54.73-27.85 110.72-25.12 139.47-16.03 28.71 9.1 29.57 24.12 29.57 24.12zm131.06-61.36s-32.01 28.31-92.89 26.62c-60.86-1.68-91.6-21.58-120.98-23.12-29.41-1.54-44.45-.39-44.45-.39s35.31-30.32 94.63-46.18c59.31-15.86 113.53-1.55 139.74 13.32 26.21 14.88 23.95 29.75 23.95 29.75zm-423.09 400.79s47.81 14.9 40 131c-4.57 67.93-60.35 94.82-60.35 94.82s11.76-43.53-4.02-87.39c-15.75-43.87-14.89-75.45-.55-105.93s24.92-32.5 24.92-32.5zm86.74-132.33s51.31 70.44 39.08 139.54c-12.22 69.1-70.49 88.98-70.49 88.98s16.31-44.73 2.09-89.13c-14.22-44.38-12.24-75.91 3.15-105.88 15.37-29.96 26.17-33.51 26.17-33.51zm102.91-97.83s44.88 69.18 28.2 134.53c-16.68 65.36-74.66 76.15-74.66 76.15s-4.75-45.13-16.04-88.7c-11.31-43.56 15.23-66.14 32.5-93.75 17.3-27.61 30-28.23 30-28.23zm107.75-94.87s36.82 68.41 13.46 128.23c-23.36 59.83-80.12 66.83-80.12 66.83s21.88-37.03 16.25-79.5c-5.62-42.48 1.68-70.44 21.21-94.53 19.56-24.09 29.2-21.03 29.2-21.03" fill="#231f20"/><path d="m4470.29 2842.78c-97.26 36.24-152.77 63.87-157.44 75.3-9.67 23.68-43.08 29.36-42.62 20.39.47-8.98 13.95-37.53.65-60.2-13.28-22.66-32.46-26.65-21.52-35.07 10.93-8.43 36.01-10.12 55.05-1.62 19.05 8.5 20.32 13.06 34.01 9.28 11.21-3.09 47.34-19.99 117.13-43.64-36.62 3.47-89.51 9.64-150.86 4.89-22.58-1.75-90.37-12.94-112.83-17.22-10.51 4.17-24.09 9.37-40.36 15.53-31.93 12.1-65.78-19.94-224.57 5.22-104.45 16.55-163.2 99.49-163.2 99.49s38.32-2.29 32.93 62.32c-3.05 36.45-10.82 99.64-56.95 93.77-30.08-3.82-4.26-27.78-46.98-34.09-36.58-5.4-5.91 57.29-41.05 109.38-41.43 61.41-109.2 51.26-151 23.92-38.3-25.08 45.75-47.67 3.4-65.85-58.28-25.03-106.21 60.86-222.85 86.34-203.2 44.4-43.79-91.72-98.03-102.41-15.74-3.1-34.31-18.43-72.22-14.28-195.49 21.4-272.95-61.42-234.61-90.26 24.63-18.52 79.9-53.63 79.9-53.63s24.53-29.7 39.78-41.99c81.12-65.36 208.62 39.71 193.97-35.79-10.23-52.75-205.45 7.77-115.35-68.85 19.76-16.83 33.79-48.26 61.21-56.08 61.72-17.63 110.98.55 110.98.55s47.18 17.66 62.67 6.7c26.74-18.93-72.52-33.38-59.73-59.1 8.03-16.12 60.49-32.92 103.19-31.49 45.62 1.51 81.83 23.18 81.83 23.18s63.4 39.79 77.7 15.98c9.59-16.01-16.21-35.87-5.39-52.57 12.58-19.44 152.42-13.74 212.58 46.07 35.08 34.88 48.55 95.12 49.16 111.07 1.54 41.27-112.09 86.9-145.14 99.28-5.59 2.1-10.47 1.97-13.28-.24-14.4-11.25-53.63-48.95-85.78-62.75-29.57-12.71-59.88-21.09-91.37-27.91-15.98-3.46-32.77-4.93-41.84-5.78-28.94-2.71-29.84 7.46 1.96 12.14 50 10.15 119.88 29.93 161.01 79.49 5.9 7.08 12.58 17.85 15.16 24.46 1.17 3.01-5.39 7.17-10.35 9.17-12.85 5.19-38.52 15.37-57.17 21.48-63.59 20.86-103.5 29.25-168.05 34.69-22.14 1.87-56.66 4.29-157.71-32.22-13.97-5.05-74.81-29.64-75.72-22.34-.96 7.73 26.68 23.9 77.63 43.26 23.48 8.92 65.06 20.58 63.4 21.62-3.4 2.13-75.43 7.86-135.47 9.93-50.84 1.75-91.81 1.62-91.81 1.62s-85.79-9.59-88.19-3.29c-3.71 9.71 12.91 31.44 28.99 33.14 91.4 9.67 333.59-9.54 406.6-22.86 140.92-25.7 219.14-55.73 347.05-120.23 49.9-25.17 80.23-48.77 124.39-71.1 40-20.21 85.32-33.98 142.76-43.02 31.58-4.96 78.26 3.6 112.4 6-136.91-46.38-268.83-126.42-334.84-149.55-189.59-66.42-323.81-98.9-467.02-70.46-143.2 28.44-237.53 77.54-237.53 77.54s31.89-116.57 293.1-168.56c349.18-69.49 640.72 217.37 785.12 263.96 182.58 58.89 370.9 58.45 422.62 55.05 97.1-26.04 205.44-40.8 189.49-25.64-18.95 17.97-134.92 37.92-268.99 87.88" fill="#231f20"/><g fill-rule="evenodd"><path d="m4381.02 2782.44c-42.62-3.79-119.07-23.07-205.14-64.23-157.95-75.57-197.58-173.13-277.15-230.76-62.13-45.01-166.09-66.28-208.67-73.44-11.92-2.01-13.99-9.66 1.4-11.38 45.94-5.17 156.22-6.12 277.29 27.61 161.58 45.03 176.11 190.9 278.46 267.78 69.39 52.12 106.72 68.93 169.76 86.41 41.76 1.55 73.75.48 91.68-.7 97.11-26.04 217.62-43.99 201.66-28.83-18.92 17.97-134.94 37.92-269 87.88-97.23 36.24-144.88 56.36-148.5 68.17-3.61 11.81-24.31 34.72-23.85 25.74.47-8.97 7.21-33.14-6.07-55.8-13.28-22.67-53.42-29.27-42.48-37.69 10.94-8.43 35.98-10.12 55.04-1.62s20.31 13.06 34 9.28c11.19-3.09 41.9-14.54 111.68-38.2-36.62 3.48-84.04 4.2-145.41-.55-22.58-1.75-90.35-12.94-112.81-17.22-10.55 4.17-24.1 9.37-40.39 15.53-31.91 12.1-65.76-19.94-224.57 5.22-104.45 16.55-163.2 99.49-163.2 99.49s38.34-2.29 32.93 62.32c-3.03 36.45-10.79 99.64-56.94 93.77-30.06-3.82-4.26-27.78-46.97-34.09-36.6-5.4-5.92 57.29-41.06 109.38-41.4 61.41-109.19 51.26-150.97 23.92-38.32-25.08 45.7-47.67 3.4-65.85-58.28-25.03-106.25 60.86-222.87 86.34-203.23 44.4-43.77-91.72-98.03-102.41-15.74-3.1-24.53-3.44-62.44.71-195.49 21.4-282.76-76.41-244.4-105.25 24.65-18.52 79.9-53.63 79.9-53.63s22.39-20.07 37.64-32.35c81.1-65.37 208.6 39.71 193.95-35.8-10.22-52.74-203.28-1.86-113.21-78.48 19.79-16.83 47.82-41.13 75.24-48.95 61.74-17.63 110.99.56 110.99.56s33.17 10.52 48.66-.44c26.73-18.93-72.54-33.38-59.73-59.1 8.05-16.12 67.46-25.49 110.16-24.06 45.62 1.52 81.85 23.19 81.85 23.19s56.41 32.35 70.69 8.54c9.6-16.01-16.57-30.83-5.79-47.52 12.6-19.45 152.46-13.74 212.6 46.06 35.1 34.89 48.97 90.08 49.55 106.03 1.55 41.27-112.11 86.9-145.11 99.28-5.61 2.1-10.47 1.97-13.31-.24-14.39-11.25-53.65-48.95-85.76-62.75-29.61-12.71-59.92-21.09-91.38-27.91-16-3.46-32.76-4.93-41.84-5.78-28.95-2.71-29.84 7.46 1.95 12.14 49.98 10.15 119.89 29.93 161.04 79.49 5.86 7.08 12.54 17.85 15.12 24.46 1.19 3.01-5.4 7.17-10.34 9.17-12.85 5.19-38.53 15.37-57.16 21.48-63.6 20.86-103.52 29.25-168.05 34.69-22.15 1.87-56.66 4.29-157.72-32.22-13.96-5.05-39.2-18.9-40.09-11.6-.98 7.73 14.49 17.88 51.48 34.1 23.01 10.09 69.57 22.71 59.14 25.49-3.87 1.03-66.01 6.04-126.03 8.1-50.84 1.74-106.47-2-106.47-2s-47.97-4.6-50.37 1.7c-3.71 9.71 35.76 14.29 51.86 15.99 91.4 9.67 272.91 2.62 345.93-10.7 140.9-25.7 219.14-55.73 347.03-120.23 49.89-25.17 80.24-48.77 124.42-71.1 39.96-20.21 85.31-33.98 142.73-43.02 31.58-4.96 67.31-4.82 101.45-2.43-136.92-46.37-257.85-117.99-323.89-141.12-189.59-66.42-335.76-79.22-478.96-50.78-143.21 28.44-222.02 101.83-222.02 101.83s2.33-156 263.52-208c349.2-69.49 674.04 218.13 818.44 264.71 103.57 33.41 202.73 47.05 278.57 51.98zm-260.57 188.3s14.88 70.74-8.48 130.56c-23.36 59.83-60.31 69.19-60.31 69.19s2.07-39.39-3.55-81.87c-5.63-42.48 1.68-70.44 21.21-94.53 19.55-24.09 51.13-23.35 51.13-23.35zm-109.38 94.53s24.57 71.85 7.89 137.2c-16.67 65.35-54.02 79.84-54.02 79.84s-2.89-41.33-14.18-84.89-7.26-73.64 10-101.25c17.31-27.62 50.31-30.9 50.31-30.9zm-101.28 98.17s29.37 72.76 17.14 141.86c-12.22 69.1-48.51 86.93-48.51 86.93s-5.67-42.68-19.88-87.07c-14.22-44.39-12.25-75.92 3.14-105.88 15.37-29.97 48.11-35.84 48.11-35.84zm-86.76 129.66s31.87 71.69 22.07 141.18c-9.81 69.48-45.43 88.57-45.43 88.57s-7.15-42.46-22.93-86.33c-15.74-43.87-14.88-75.44-.55-105.93 14.34-30.47 46.84-37.49 46.84-37.49zm399.22-399.35s-32 28.32-92.87 26.63c-60.88-1.69-87.68-15.09-117.08-16.63-29.39-1.54-43.16 3.73-43.16 3.73s30.12-40.93 89.43-56.8c59.32-15.86 113.52-1.54 139.75 13.33 26.21 14.87 23.93 29.74 23.93 29.74zm-128.58 61.37s-25.41 34.35-85.31 45.35-88.91 3.47-117.97 8.07c-29.08 4.6-41.44 12.63-41.44 12.63s20.95-46.3 75.68-74.15c54.71-27.85 110.7-25.12 139.45-16.03 28.71 9.1 29.59 24.13 29.59 24.13zm-116.76 97.43s-21.5 35.63-75.48 49.75c-54.03 14.12-80.79 8.12-107.04 14.24-26.25 6.11-37.12 14.78-37.12 14.78s16.85-47.34 65.35-78.01c48.49-30.67 99.61-30.88 126.19-23.3 26.6 7.58 28.1 22.54 28.1 22.54zm-115.56 107.36s-16.99 37.99-68.87 58.58c-51.87 20.61-79.2 17.9-104.49 27.18-25.31 9.27-35.06 19.19-35.06 19.19s10.96-49.04 55.37-85.39c44.38-36.36 95.1-42.79 122.42-38.5 27.31 4.27 30.63 18.94 30.63 18.94zm-88.07 116.35s-14.32 39.08-64.63 63.25-77.73 23.38-102.34 34.39c-24.57 11.02-33.61 21.6-33.61 21.6s7.51-49.69 49.27-89.05c41.74-39.36 91.88-49.32 119.44-46.95 27.55 2.36 31.87 16.76 31.87 16.76zm-37.32 84.79s33.36 39.76-7.39 112.08c-40.76 72.33-102.22 100.6-102.22 100.6s2.61-21.39.23-61.48c-2.42-40.08 3.85-92.25 42.13-117.23 38.26-24.99 67.25-33.97 67.25-33.97zm35.31 122.05s23.77 56.22 4.18 139.92c-19.61 83.69-89.73 229.85-113.59 436.55-23.87 206.7-4.71 338.64-4.71 338.64l-84.24-92.44s3.24-227.59 42.54-397.17c39.32-169.59 155.82-425.5 155.82-425.5zm-76.95 82.57c-34.46 86.07-95.96 214.41-125.63 382.04-36.01 203.42-24.53 333.29-24.53 333.29l-79.08-91.04s16.54-224 65.88-390.88c19.53-66.1 53.32-144.76 86.99-215.64-.86 29.15-3.67 44.54-3.67 44.54s40.62-18.08 80.04-62.31zm-97-48.09c-36.5 81.41-88.82 194-118.24 335.82-40.62 195.72-33.28 320.69-33.28 320.69l-73.71-87.61s22.42-215.53 74.84-376.1c20.78-63.6 62.43-144.5 97-212.71 29.02-48.81 54.18-75.79 69.8-89.63-16.78 26.9-19.69 62.8-17.93 92.2.37 5.94.9 11.75 1.52 17.34zm-56.46-83.45c-38.15 77.13-104.16 192.16-144.57 342.41-49.02 182.33-48.93 290.44-48.93 290.44l-64.37-73.33s23.08-205.04 91.17-350.34c118.81-253.48 189.73-293.51 189.73-293.51s-25.04 41.32-23.03 84.33zm705.72-518.11s6.96 67.33-22.77 119.76c-29.75 52.43-67.46 56.45-67.46 56.45s6.4-36.19 5.51-76.2c-.9-40.01 9.41-64.96 31.44-84.8s53.28-15.21 53.28-15.21" fill="url(#m)"/><path d="m1075.92 906.719 27.99-28.047c-26.64-95.133-42.68-195.25-51.59-296.063-175.347 7.321-343.98 11.75-519.136 11.75-179.688 0-322.95-4.859-472.8715-9.488l-32.8516 32.988s39.2774 32.442 40.293 43.571c23.4961 257 27.5391 455.24 27.5391 709.32 0 129.35 14.492 615.86-61.3672 767.04v38.25c169.3552-7.37 345.7032-7.6 515.1762-7.6 146.464 0 275.293 6.72 427.363 12.12 10.547.37 52.575 29.41 52.575 29.41l26.88-26.84c-34.03-90.27-41.76-160.65-38.48-266.7h-82.381c-141.758 51.3-372.891 55.8-464.004 56.47-10.02-139.06-6.602-348.42-6.172-468.58 115.137.28 219.629 8.74 329.941 24.92 13.828 2.02 43.867 41.86 43.867 41.86l30.039-30.03c-15.39-97.84-24.218-196.57-27.207-290.09-129.609 37.39-243.027 55.02-374.668 56.66v-245.8c0-256.68 28.907-270.82 139.024-270.82 139.375 0 341.367 48.789 470.041 115.699zm8490.12 801.611c-44.18-158.93-105.12-360.76-143.83-485.66-61.84-200.4-122.39-397.959-185.71-597.908-71.23-9.442-158.88-24.5-221.44-36.313l-29.06 29.153s9.8 39.046 3.04 62.769c-55.35 194.93-111.29 387.569-163.86 584.129-28.83 108.55-79.07 293.04-116.29 436.37-9.94-222.91-15.9-477.42-18.05-605.39-3.52-210.75 1.84-382.511 22.17-516-52.29 5.61-129.67 14.879-200.22 14.879-44.35 0-88.51-3.078-136.91-7.609l-31.21 31.109s43.2 40.891 47.26 66.411c68.75 432.71 102.74 883.53 107.6 1256.67 0 57.05 4.43 145.02-22.87 196.85v38.25c67.66-4.84 133.85-8.64 201.7-8.64 41.23 0 83.24-1.52 125.33-2.84 35.74-1.13 127.25 44.81 127.25 44.81l44.9-44.77c27.66-123.42 79.59-316.77 124.92-483.02 36.56-134.7 79.63-305.38 115.39-425.94 37.81 117.98 89.65 318.55 129.46 449.38 34.19 112.35 102.03 339.73 128.3 471.02 76.97-4.39 154.2-6.17 231.32-6.17 42.76 0 81.98.67 121.33 1.99 27.29.92 79.24 38.11 79.24 38.11l32.66-32.72c-2.39-51.95-4.38-161.57-4.26-252.22.55-337.27 24.75-1052.03 85.4-1345.311-80.62 7.64-170.87 14.64-266.49 14.64-51.94 0-120.79-3.179-185.04-8.179l-31.72 31.679s35.15 33.93 36.25 55.961c5.25 105.211 8.45 187 10.47 286.301 1.95 85.809-8.46 458.969-17.03 748.209zm-1464.65 457.4c15.31 0 30.15.57 44.53 1.47 35.08 2.18 98.24 42.77 98.24 42.77l30.7-30.62c-23.2-194.62-31.31-367.84-33.84-520.7-4.56-172.41-10.69-363.72-10.61-539.07.16-328.682-155.7-561.6-624.45-561.6-309.77 0-474.69 116.559-547.93 241.122-43.77 74.418-35.12 177.507-35.12 288.798 0 81.81 4.53 315.44 4.53 463.09 0 141.61-.98 455.11-62.97 586.8v38.25c75.49-5.8 150.94-8.79 226.68-8.79 39.26 0 74.57.98 109.77 2.68 28.67 1.39 85.15 39.24 85.15 39.24l31.53-31.55c-15.9-186.17-20.9-424.67-20.88-736.93.02-268.34 2.6-447.01 23.89-515.139 9.68-31.153 35.35-71.969 61.99-86.891 54.86-30.699 95.51-70.808 175.86-70.808 284.98 0 307.15 164.269 307.15 513.868 0 239.19 10.23 678.7-57.15 894.32 69.04-6.57 123.38-10.31 192.93-10.31zm-4065.98 2.34c38.09 0 71.91.81 105.64 2.39 24.83 1.16 75.81 38.71 75.81 38.71l31.48-31.46c-20.51-228.01-18.81-514.17-20.35-804.51-2.46-259.05 8.32-570.161 45.78-792.591-70.78 5.602-163.91 11.961-234.92 11.961-77.33 0-144.06-2.871-209.96-6.761l-32.19 32.132s36.23 29.09 37.03 45.34c10.63 216.258-2.69 415.109-1.76 623.549-90.92 3.85-150.58 6.15-225.78 6.15-74.26 0-120.47-1.33-193.16-4.16 2.18-240.11 10.64-469.648 36.17-708.769-69.79 5.828-162.58 12.519-247.34 12.519-69.97 0-127.09-2.582-189.79-6.761l-31.95 32.05s36.54 16.11 37.67 29.36c20.08 235.172 23.13 508.221 23.13 721.731 0 123.56 18.2 600.06-61.35 768.84v38.25c75.45-4.86 157.83-7.97 235.76-7.97 46.99 0 89.22 1.76 132.46 4.29 19.3 1.13 53.4 36.81 53.4 36.81l31.33-31.33c-15.27-154.65-20.04-385.07-20.04-661.56 98.87-5.47 145.35-5.47 223.09-5.47 76.05 0 115.7 0 221.83 5.55-1.15 196.16 3.52 470.68-62.15 621.43v38.25c80.47-6.64 163.64-7.97 240.16-7.97zm-1192.19-1236.019 28.17-28.172c-25.12-96.57-38.83-183.891-42.62-277.93-133.05-41.269-286.99-64.57-404-64.57-247.17 0-427.64 104.75-547.02 277.09-86.13 124.351-119.06 305.771-119.06 525.481 0 537.94 263.87 835.39 716 835.39 84.33 0 174.16-2.74 275.68-12.05 21.6-1.99 87.07 15.88 87.07 15.88l28.85-28.86c-21.06-104.19-38.5-218.04-42.4-335.16h-51.31c-7.7 12.03-15.45 23.26-23.19 33.92-63.43 87.74-137.79 129.26-260.7 133.04-208.94 6.42-334.2-157.88-334.2-588.54 0-291.83 77.44-546.351 231.14-601.59 42.79-15.39 62.94-42.91 110.95-45.07 138.4-6.211 240.16 66.531 346.64 161.141zm-1251.7 504.589c0-281.03 4.91-598.199 44.36-855.191-65.33 4.051-168.17 10.61-234.71 10.61-79.02 0-132.52-2.047-208.98-6.45l-32.23 32.25s37.36 17.891 38.34 28.481c23.28 248.82 21.64 486.48 21.64 731.24 0 188.77 14.61 593.63-61.33 760.21v38.25c73.25-4.72 146.41-8.41 219.85-8.41 42.73 0 88.75 1.56 131.01 3.68 27.58 1.37 70.74 37.86 70.74 37.86l31.37-31.43c-18.03-190.64-20.06-468.18-20.06-741.1zm4794.4-197.38c-54.61 203.76-145.8 531.1-145.8 531.1s-86.66-286.54-152.83-531.61c83.08-9.03 211.75-9.37 298.63.51zm501.48-315.01c39.03-117.141 86.72-235.352 139.03-344.621-70.9 5.402-198.46 14.73-308.97 14.73-54.67 0-124.08-3.027-187.17-8.121l-31.68 31.621s24.57 31.27 21.57 51.18c-18.64 123.742-51.16 239.27-79.97 354.171-125.39 11.81-281.85 12.62-406.23 3.93-5.64-24.5-9.82-46.12-13.14-63.96-19.57-105.789-38.28-227.899-43.87-382.75-49.68 5.05-142.85 13.929-220.78 13.929-55.9 0-111.66-3.461-167.73-7.98l-31.43 31.48s66.58 43.789 78.77 70.77c34.96 77.312 69.38 158.082 100 238.762 52.15 138.319 122.46 333.429 174.61 487.629 47.62 138.33 120.29 363.08 172.44 537.68 15.92 49.97 41.33 126.93 26.15 178.93v38.24h24.5c72.18 0 128.79 2.29 173.9 4.52 20.53.72 41.43.99 62.48 1.18 36.35.34 119.4 48.6 119.4 48.6l43.01-42.91c12.03-62.76 35.17-151.01 55.37-229.69 40.84-158.78 96.42-356.15 139.51-505.9 72.54-251.6 117.13-394.49 160.23-521.42zm-1941.6 578.56c103.52 0 225.37 46.19 225.37 264.01 0 77.18-36.23 130.32-71.11 183.94-13.01 20.01-60.68 39.87-117.31 39.87-30.72 0-66.48-1.69-108.67-6.46-3.75-63.36-2.93-135.26-3.75-222.68-.64-69.06-2.3-163.75-2.58-256.43 31.96-2.3 70.94-2.25 78.05-2.25zm306.9-451.42c0 89.89-40.61 145.67-77.91 202.13-24.54 37.18-93.56 61.1-172.47 61.1-36.99 0-85.91-3.43-134.84-8.74-.66-107.43 3.69-220.09 6.02-306.829 2.85-106 8.47-172.129 30.04-177.352 28.43-6.91 36.25-35 101.09-35 154.49 0 248.07 62.289 248.07 264.691zm59.98 383.75c62.75-12.09 116.56-15.21 155.7-44.6 141.07-106 173.89-215.73 173.89-321.41 0-115.79-43.81-481.599-623.66-481.599-140.82 0-237.4 6.828-297.5 6.828-79.02 0-161.19-2.679-252.46-8.55l-32.13 32.05s37.17 30.563 38.69 51.68c17.58 242.5 21.29 471.411 21.29 710.321 0 160.21 16.06 593.04-61.34 757.93v38.25c140.52-6.99 244.51-6.17 351.62-6.17 149.94 0 295.31 6.84 381.64 6.84 80.97 0 144.02 9.76 197.85-20.75 97.15-55.09 195.51-163.51 195.51-328.93 0-164.38-93.09-330.77-249.1-391.89" fill="url(#n)"/><path d="m1034.24 906.719h41.68c-31.45-96.719-45.63-188.047-54.55-288.86-175.335 7.321-346.975 10.43-522.093 10.43-158.828 0-312.968-6.059-471.8161-10.43 30.0782 295.582 33.8868 508.111 33.8868 786.821 0 129.35 14.4921 615.86-61.3477 767.05v38.24c169.355-7.37 345.723-7.61 515.176-7.61 171.25 0 325.488 2.11 513.864 7.61-30.563-74.73-48.884-160.08-46.364-259.61h-41.68c-138.32 49.82-365.781 56.07-501.289 56.72-12.344-138.62-9.57-348.67-9.121-468.83 140.488.33 269.375 9 408.105 32.85-16.992-91.96-26.718-182.2-29.687-275.72-126.719 35.65-245.391 46.32-376.094 46.19v-245.8c0-256.668 28.945-270.821 139.043-270.821 139.395 0 333.613 14.86 462.287 81.77" fill="#09301c"/><path d="m9537.75 1733.27c-44.18-158.93-101.91-351.78-140.6-476.66-61.84-200.4-123.19-401.122-186.49-601.059-75.6-10.071-149.8-23.391-224.66-37.949-63.71 226.48-133.91 453.458-194.77 680.828-28.83 108.54-77.91 293.04-115.14 436.36-9.94-222.91-16.5-477.4-18.41-605.37-3.32-170.791.07-401.068 15.66-511.561-52.3 5.59-101.84 10.43-160.55 10.43-60.04 0-107.11-3.809-168.12-10.43 79.59 461.791 115.72 955.761 120.94 1357.001 0 57.05 4.45 145.03-22.88 196.87v38.24c67.66-4.83 133.85-8.64 201.7-8.64 97.82 0 188.99 2.3 286.51 8.04 26.81-126.47 80.37-327.61 125.72-493.86 36.56-134.69 79.63-305.38 115.39-425.94 37.81 117.98 99.83 318.54 139.63 449.38 34.2 112.35 102.01 339.73 128.3 471.02 76.99-4.4 154.18-6.17 231.33-6.17 82.17 0 152.5 1.21 234.49 6.17-2.81-54.59-5.51-166.37-5.51-251.02 0-251.78 22.97-1088.098 76.51-1341.091-80.57 7.641-144.98 10.43-223.69 10.43-74.97 0-142.04-4.687-216.76-10.43 8.04 151.442 10.25 251.032 12.77 376.18 1.99 85.811-2.81 449.981-11.37 739.231" fill="#09301c"/><path d="m8067.48 2199.66c65.55 0 125.59 6.95 176.68 10.31-21.95-161.62-32.5-339.69-36.33-517.39-4.53-172.42-11.37-398.29-11.37-573 0-298.721-128.04-528.799-596.93-528.799-490.58 0-610.57 199.5-610.57 531.049 0 81.8 4.54 315.43 4.54 463.1 0 141.6-.98 455.1-62.97 586.8v38.24c75.51-5.8 150.97-8.78 226.7-8.78 81.11 0 147.95 1.75 228.84 7.98-17.77-177.78-23.28-490.71-23.28-734.55 0-268.33 2.62-447.01 23.87-515.151 28.28-90.809 115.59-157.68 237.85-157.68 285 0 307.15 164.25 307.15 513.851 0 239.19 10.25 678.71-57.15 894.33 69.06-6.57 123.4-10.31 192.97-10.31" fill="#09301c"/><path d="m4001.46 2202c76.9 0 138.79.79 215.4 7.17-22.91-211.48-20.2-562.46-22.82-802.04-2.65-213.08 4.83-582.329 39.18-789.271-70.8 5.602-138.02 8.629-209.04 8.629-77.32 0-150.33-3.726-227.48-8.547 18.83 246.848 24.69 470.119 25.74 703.199-90.94 3.85-141.05 5.76-216.25 5.76-74.26 0-146.64-1.86-227.42-5.62 2.19-240.12 6.8-464.889 32.34-704.01-69.8 5.832-139.23 9.218-209.25 9.218-76.8 0-138.75-1.218-221.74-8.629 25.23 247.821 26.87 552.661 26.87 785.021 0 123.56 18.19 600.06-61.35 768.85v38.24c75.47-4.86 157.86-7.97 235.77-7.97 76.7 0 143.28 2.07 219.78 7.17-17.17-151.11-22.62-438.6-22.62-658.97 98.87-5.47 145.32-5.47 223.09-5.47 76.02 0 115.66 0 221.8 5.55-1.14 196.16 3.51 470.69-62.13 621.45v38.24c80.49-6.63 163.63-7.97 240.13-7.97" fill="#09301c"/><path d="m2801.54 932.051h41.68c-27.46-93.903-43.81-183.051-47.46-280.692-130.66-39.871-276.6-56.808-393.61-56.808-397.15 0-677.36 262.179-677.36 803.329 0 537.94 263.84 835.39 715.97 835.39 115.08 0 245.41-10.18 396.68-30.1-22.26-103.75-42.46-212.98-46.37-330.1h-41.68c-70.97 111-149.55 163.58-287.46 163.58-208.67 0-341.36-180.71-341.36-622.85 0-372.48 112.85-598.999 334.57-608.968 138.36-6.211 239.92 32.609 346.4 127.219" fill="#09301c"/><path d="m1557.6 1470.56c0-281.02 3.12-595.56 38.94-852.681-65.31 4.043-139.49 8.121-211.11 8.121-79.02 0-150.76-3.691-225.47-8.141 29.71 271.051 26.08 529.071 26.08 793.641 0 188.78 14.59 593.64-61.37 760.23v38.24c73.28-4.72 146.4-8.42 219.86-8.42 82.27 0 179.2 3.32 235.68 7.62-18.63-172.41-22.61-515.88-22.61-738.61" fill="#09301c"/><path d="m5290.06 1461.53c260.02-50.14 320.98-227.02 320.98-372.6 0-123.211-35.08-467.481-592.43-467.481-140.82 0-237.4 6.84-297.5 6.84-108 0-181.36-2.578-284.59-10.43 23.27 274.02 26.08 529.711 26.08 795.941 0 160.2 16.01 593.03-61.37 757.93v38.24c140.55-6.99 244.53-6.17 351.6-6.17 149.96 0 295.31 6.83 381.68 6.83 262.03 0 394.77-154.09 394.77-359.92 0-194.13-97.37-334.89-239.22-389.18zm-71.06-379.42c0 163.24-79.37 263.22-250.35 263.22-37.01 0-85.94-3.43-134.86-8.74-1.35-102.27 2.75-220.08 4.9-306.82 2.36-95.321 8.09-161.02 30.43-186.79 19.02-22.238 36.99-25.57 101.82-25.57 154.51 0 248.06 62.301 248.06 264.7zm-307.14 454.64c103.53 0 225.39 46.18 225.39 264 0 122.13-48.44 220.75-186.76 220.75-30.74 0-66.51-1.69-108.69-6.45-3.6-57.02-5.39-133.11-5.39-219.63 0-67.35-1.94-163.75-2.21-256.43 31.97-2.29 70.59-2.24 77.66-2.24" fill="#09301c"/></g><path d="m6840.64 958.172c39.03-117.141 76.31-222.992 130.67-340.313-70.9 5.403-164.1 10.43-253.85 10.43-77.4 0-141.72-3.418-218.85-10.43-14.23 155.743-47.5 301.211-82.61 441.331-122.74 10.7-290.3 10.21-409.63-.22-5.65-24.5-10.26-46.1-13.52-63.95-12.87-70.461-43.34-224.809-48.55-377.161-49.67 5.039-121.88 10.43-188.11 10.43-74.28 0-142.3-5.391-199.16-10.43 50.41 106.59 100.41 226.352 144.83 343.461 52.14 138.32 122.5 333.42 174.64 487.62 47.6 138.33 120.28 363.1 172.43 537.69 15.89 49.97 41.32 126.93 26.15 178.93v38.24h24.51c72.17 0 128.77 2.28 173.91 4.52 73.39 2.55 142.69 8.56 215.78 15.85 11.93-72.16 34.06-159.98 54.27-238.67 40.84-158.78 95.3-356.16 138.38-505.9 72.54-251.6 115.63-394.48 158.71-521.428zm-479.98 315.018c-54.62 203.76-145.8 531.1-145.8 531.1s-87.15-288.05-153.59-531.62c83.09-9.03 212.5-9.35 299.39.52" fill="#09301c"/><path d="m1485.21 2138.19c-13.2-186.78-16.21-480.55-16.21-667.63 0-247.35 2.58-520.31 27.04-758.56-36.57 1.551-73.91 2.59-110.61 2.59-44.16 0-101.7-1.469-150.29-3.891l-1.96-22.738c49.53 2.398 99.28 4.008 152.25 4.008 45.21 0 91.43-1.59 135.88-3.77-26.95 243.551-29.69 526.671-29.69 782.361 0 195.22 3.17 482.3 16.29 668.51zm-1142.886-635.91-.332 35.65c-.683 193.27-.508 365.01 16.699 558.13l81.446-.39c113.554-.54 307.968-4.66 458.593-40.72 2.305 22.89 8.301 57.19 14.922 85.99l23.672.56c-9.062-36.29-15.469-74.57-18.633-115.03-150.234 41.33-358.125 46-478.671 46.59l-60.625.29c-15.938-178.77-15.43-356.12-14.786-535.33l.254-35.74zm1.992-476.33v404.14l88.516.07c100.742.1 196.172-5.99 293.984-24.54 1.797 20.3 6.446 63.61 8.868 83.82 0 0 6.054.66 23.593 2.95-5.156-37.89-9.121-75.76-11.953-113.93-105.117 22.16-206.719 29.18-314.453 29.09l-65.918-.06v-311.72c0-137.02-3.027-249.989 71.895-303.461-83.399 45.023-94.532 116.429-94.532 233.641zm-241.972-317.27c124.883 3.761 270.801 8.191 396.933 8.191 148.672 0 294.864-2.211 442.891-7.34 3.145 23.969 9.375 64.867 15.82 96.469 0 0 11.992 3.641 24.805 7.84-9.063-42.469-15.645-84.692-20.742-127.649-154.844 5.629-307.442 8.071-462.774 8.071-134.453 0-265.547-4.313-398.964-8.293zm3210.256 801.72v39.8c0 189.38 4.1 427.75 15.97 588.87l-22.83-.92c-11.74-160.69-15.76-407.71-15.76-587.94v-39.81zm555.27-822.252c51.88 2.641 103.09 4.313 156.31 4.313 45.08 0 88.67-1.191 132.56-3.461-25.2 215.48-31.06 528.57-28.65 718.9 2.34 214.03.6 516.18 16.27 730.55l-22.86-.88c-15.31-214.18-13.79-523.23-16.03-729.4-2.31-183.45 3.03-480.451 25.86-695.338-35.37 1.477-70.78 2.25-107.15 2.25-44.92 0-106.54-1.742-154.82-4.301zm43.52 717.882c-101.68 4.31-203.4 9.47-305.2 9.47-105.7 0-211.23-4.79-316.78-9.69 2.09-231.29 4.24-462.669 23.62-693.361-36.98 1.723-73.99 2.633-111.17 2.633-44.13 0-102.27-.742-147.27-2.961l-1.76-22.832c50.24 2.672 96.21 3.172 149.03 3.172 45.46 0 90.72-1.391 135.97-3.922-20.78 231.5-23.49 463.481-25.6 695.691 97.95 4.55 195.88 8.65 293.96 8.65 94.26 0 202.93-4.91 305.12-9.6zm-1943.05-574.62c101.13-99.308 267.01-149.781 433.81-149.781 92.93 0 199.16 8.672 309.47 38.121 1.47 15.891 5.98 56.379 9.16 74.551 12.58 6.719 25.57 14.668 25.57 14.668-6.17-35.071-10.67-70.489-13.56-106.848-118.2-33.5-232.07-43.109-330.64-43.109-174.57 0-325.55 55.207-433.81 172.398zm790.12 1315.08c-9.38-48.2-17.7-97.61-23.75-148.43-68.64 68.84-153.25 101.54-272.78 101.54-272.22 0-407.34-242.24-407.34-685.8 0-259.01 55.08-479.23 185.55-592.831-146.45 123.48-208.17 314.861-208.17 592.831 0 443.86 135.82 708.12 429.96 708.12 106.53 0 188.4-24.88 255.94-78.49 4.06 28.18 12.79 78.26 17.85 105.64zm2699.68-832.62c42.99-58.04 64.3-130.12 64.3-224.94 0-96.59-15.08-378.879-503.83-378.879-140.82 0-237.4 6.82-297.5 6.82-71.73 0-143.77-1.262-211.23-5.32l-1.6-22.731c69.4 4 131.45 5.442 212.83 5.442 60.1 0 156.68-6.832 297.5-6.832 506.12 0 526.45 297.922 526.45 401.5 0 103.32-35.27 174.77-86.92 224.94zm-94.1 764.02c67.39-53.02 99.26-133.62 99.26-227.18 0-244.82-176.64-346.19-302.03-389.22h-69.96c166.35 47.76 349.37 143.21 349.37 389.22 0 86.48-26.17 174.38-76.64 227.18zm-535.11-1288.281c-51.64 48.223-53.66 143.61-56.2 238.531-3.26 122.7-5.76 244.98-4.16 367.73 66.47 7.21 133.11 15.43 200.08 15.43 97.19 0 170.67-28.18 223.6-77.17-44.11 49.32-113.05 99.04-223.6 99.04-74.49 0-148.55-8.95-222.42-16.97-1.68-129.65.82-259.01 3.91-388.61 2.85-120.41 5.5-193.258 78.79-237.981zm296.83 1233.561c-29.14 48.91-86.09 86.37-175.27 86.37-64.49 0-128.52-7.58-192.44-14.81-6.27-99.74-10.22-199.35-10.22-299.31 0-67.27-1.95-163.58-2.22-256.15l-.28-39.07h22.7l.19 38.99c.28 92.62 2.23 188.94 2.23 256.23 0 93.38 3.12 185.84 8.98 278.97 56.92 6.44 113.68 13.08 171.06 13.08 79.02 0 134.96-25.1 175.27-64.3zm1056.33-99.65c-70.78-235.31-133.98-450.01-198.63-685.54l-23.44.04c70.62 256.07 134.02 470.92 210.86 726.38zm375.25-1234.801c53.03 3.679 103.09 5.543 160.12 5.543 50.49 0 102.05-1.563 150.25-3.883-33.59 81.973-61.13 161.351-89.53 246.582-43.34 127.659-86.68 271.359-159.64 524.379-43.25 150.29-97.9 348.39-138.87 507.74-15.31 59.53-31.68 124.2-44.1 183.71l-22.66-1.98c11.68-56.09 31.13-134 44.84-187.36 41.04-159.55 95.75-357.89 139.07-508.36 73.08-253.52 116.5-397.44 159.92-525.34 24.76-74.359 48.89-144.211 76.91-215.25-38.04 1.469-77.44 2.371-116.19 2.371-49.92 0-114.75-2.062-163.12-5.551zm-894.2 3.019c29.61 1.524 60.75 2.524 93.05 2.524 41.97 0 86.25-2.082 126.1-4.903 11.28 145.493 37.81 289.2 70.58 431.161 173.09 15.13 348.91 16 539.51-1.78l-5.82 23.23c-193.2 16.83-358.85 16.54-552.05-.35-32.69-141.761-60.15-283.1-72.93-428.222-34.18 2.071-70.58 3.473-105.39 3.473-19.76 0-56.68-.699-82.97-1.98zm1728.77 134.692c-31.27 31.5-54.7 69.961-68.22 113.41-25.14 80.52-26.87 273.56-26.87 534.78 0 213.73 4.23 480.06 17.11 663.9l-22.86-.99c-12.59-194.24-16.87-458.28-16.87-662.91 0-173.65.55-319.84 9.02-422.86 9.07-110.112 30.55-180.069 108.69-225.33zm-236.07-46.711c79.22-80.09 215.59-122.969 443.69-122.969 429.63 0 530.98 197.672 530.98 462.83 0 175.13 6.81 401.52 11.38 574.42 3.25 151.09 11.39 302.44 27.04 444.02l-23.09-1.6c-15.37-144.07-23.52-299.63-26.56-441.88-4.57-173.08-11.39-399.65-11.39-574.96 0-253.6-92.13-440.209-508.36-440.209-236.46 0-386.93 52.051-443.69 100.348zm1267.93-88.36 3.63 23.082c26.72 1.571 63.36 2.43 85.39 2.43 21.94 0 42.66-.609 62.72-1.691-7.46 121.968-8.93 285.54-6.39 415.61 4.34 293.6 16.88 587.07 30.29 880.43l19.71-71.03c-12.11-269.83-23.4-539.68-27.4-809.79-2.68-138.841-.84-316.091 8.07-439.408-27.62 2.008-56.1 3.27-87 3.27-31.95 0-60.39-.981-89.02-2.903zm701.64 446.001c-53.16 184.49-103.93 369.52-154.24 554.89-37.71 138.35-85.8 318.31-115.64 447.27l23.04 1.02c29.11-126.08 74.89-297.37 114.42-442.35 47.42-174.65 94.37-348.57 144.41-522.21zm404.06 812.22c-62.63-225.22-126.13-450.11-195.35-673.49-57.71-187.01-115-374.34-173.83-561.031-42.63-6.34-84.96-13.59-127.28-21.387l-6.27 21.988c31.21 5.621 84.82 14.84 116.21 19.66 57.34 182.192 113.24 364.98 169.57 547.46 75.86 244.83 145.25 491.64 213.71 738.66zm76.45-1260.568c48.61 3.148 96.09 5.25 147.19 5.25 51.48 0 97.03-1.172 144.7-4.043-44.78 325.461-63.49 1041.981-63.49 1268.731 0 56.74 1.29 125.49 2.93 181.58l-22.74-.8c-1.64-53.94-2.81-131.73-2.81-180.78 0-221.19 17.81-907.31 60.14-1244.669-38.52 1.821-76.66 2.59-118.73 2.59-42.74 0-98.99-2.082-146.18-5.051z" fill="url(#o)" fill-rule="evenodd"/></g></svg>