<svg xmlns="http://www.w3.org/2000/svg" viewBox="0 0 753.61 266.26"><defs><style>.cls-1{fill:#ec6b1a;}.cls-2{fill:#968b83;}</style></defs><title>Risorsa 5</title><g id="Livello_2" data-name="Livello 2"><g id="Livello_1-2" data-name="Livello 1"><path class="cls-1" d="M0,133.37l33.72-.08c17.1,0,29.75,8.68,29.79,26.85,0,15-9.27,24.31-24.14,24.35l-13.6,0,.05,22-25.66.06Zm25.73,32.69h2.62c4.66,0,9.71-.8,9.7-6.73,0-5.73-5.46-6-9.83-6H25.7Z"/><path class="cls-1" d="M70.73,133.21l25.65-.06.06,24.68,16.32,0-.05-24.68,25.65-.06.16,73.26-25.65.06-.06-25.46-16.32,0,.06,25.46-25.66.05Z"/><path class="cls-1" d="M172,206.25l-28.17.06L169.15,133l29.44-.06,26.3,73.2-28.18.07-2.45-9.13-20.11,0Zm17.53-26.56-3.14-12.92c-.78-3.11-1.27-6.31-1.77-9.42h-1l-4.81,22.36Z"/><path class="cls-1" d="M230.26,132.86l32.16-.07c16.52,0,30.53,6.92,30.57,25.39,0,11.07-4.24,15.75-14.15,19.07v.58a18.69,18.69,0,0,1,4.47,4.37l16,23.77-30.7.07L256.9,182.55h-.49l0,23.51-26,.06Zm26.11,32.39h1.85c4.37,0,8.74-.7,8.73-6.14,0-5.64-4-6.31-8.56-6.3h-2.05Z"/><path class="cls-1" d="M312.65,132.67l27.4-.06,10.19,38.46h.68a83.25,83.25,0,0,1,1.82-9.72l8.2-28.78,27.11-.06,12.21,73.23-25.75.06-3.68-40.12h-.49a61.36,61.36,0,0,1-1.73,7.29l-10.52,32.87-15.55,0-9.59-31a50.43,50.43,0,0,1-1.67-9.13h-.87c-.19,2.91-.38,5.93-.67,8.84l-3,31.3L301,206Z"/><path class="cls-1" d="M430.76,205.68l-28.18.06,25.3-73.32,29.44-.07,26.3,73.21-28.18.06L453,196.49l-20.11,0Zm17.53-26.57-3.14-12.92c-.79-3.1-1.28-6.31-1.77-9.42h-1l-4.81,22.35Z"/><path class="cls-1" d="M476.16,132.31l56-.12,0,23.8-14.67-.64.11,50.13-26.62.06-.11-50.14-14.68.72Z"/><path class="cls-1" d="M539.12,132.17l25.65,0,.06,24.68,16.32,0-.06-24.68,25.66-.06.16,73.26-25.65.06-.06-25.46-16.32,0,0,25.46-25.65.06Z"/><path class="cls-1" d="M618.3,132l49.26-.11.05,20-22.45,0,0,7,20.5,0,0,19-20.5,0,0,7.19,23.22-.05,0,20-50,.11Z"/><path class="cls-1" d="M679.51,131.86l25.94-.06-.51,31.78h.58c.58-3,2.22-5.64,3.68-8.27L722,131.77l29-.07-22.85,35.71L753.61,205l-30.89.07L710,182.9c-1.57-2.81-3.9-5.53-4.49-8.54H705l.66,30.71-26,.05Z"/><rect class="cls-1" x="292.42" y="21.14" width="168.83" height="10.52" transform="translate(-0.04 0.51) rotate(-0.08)"/><rect class="cls-1" x="292.39" y="42.17" width="168.83" height="10.52" transform="translate(-0.06 0.51) rotate(-0.08)"/><rect class="cls-1" x="292.37" y="63.2" width="168.83" height="10.52" transform="translate(-0.09 0.51) rotate(-0.08)"/><rect class="cls-1" x="358.64" y="0.07" width="102.62" height="10.52" transform="translate(-0.01 0.56) rotate(-0.08)"/><rect class="cls-1" x="292.44" y="0.2" width="47.47" height="10.52" transform="translate(-0.01 0.43) rotate(-0.08)"/><polygon class="cls-1" points="409.44 94.7 461.18 94.63 461.18 84.11 409.44 84.18 409.44 94.7"/><rect class="cls-1" x="292.35" y="84.27" width="98.34" height="10.52" transform="translate(-0.12 0.46) rotate(-0.08)"/><path class="cls-2" d="M169.47,265.92l-2.57-5.66H155l-2.57,5.66h-1.56l9.41-20.36h1.44l9.42,20.36ZM161,247.2l-5.34,11.7h10.66Z"/><path class="cls-2" d="M190.32,261.17a7.71,7.71,0,0,1-1.7,2.78,7.22,7.22,0,0,1-2.61,1.71,9.53,9.53,0,0,1-3.37.57,9.39,9.39,0,0,1-3.33-.56,7.16,7.16,0,0,1-2.63-1.67,7.48,7.48,0,0,1-1.72-2.73,10.78,10.78,0,0,1-.61-3.76V245.7h1.51v11.67a7.9,7.9,0,0,0,1.8,5.56,6.52,6.52,0,0,0,5,1.95,7.85,7.85,0,0,0,2.77-.47A5.57,5.57,0,0,0,187.6,263a6.41,6.41,0,0,0,1.35-2.31,9.77,9.77,0,0,0,.48-3.21V245.7h1.5v11.64A11,11,0,0,1,190.32,261.17Z"/><path class="cls-2" d="M203.72,247.06v18.86h-1.5V247.06h-7V245.7h15.59v1.36Z"/><path class="cls-2" d="M232.44,259.78a10.69,10.69,0,0,1-2.06,3.34,9.88,9.88,0,0,1-3.22,2.29,10.11,10.11,0,0,1-11.54-2.28,10.24,10.24,0,0,1-2.05-3.31,10.94,10.94,0,0,1-.72-3.95v-.06a10.85,10.85,0,0,1,.74-4,10.69,10.69,0,0,1,2.06-3.34,9.79,9.79,0,0,1,3.21-2.29,10.54,10.54,0,0,1,8.34,0,9.77,9.77,0,0,1,3.21,2.28,10.13,10.13,0,0,1,2.05,3.31,10.94,10.94,0,0,1,.72,3.95,0,0,0,0,1,0,.06A10.64,10.64,0,0,1,232.44,259.78Zm-.82-4a9.72,9.72,0,0,0-.65-3.54,9,9,0,0,0-1.79-2.89,8.71,8.71,0,0,0-2.73-1.95,8.71,8.71,0,0,0-6.91,0,8.41,8.41,0,0,0-2.72,1.93,9,9,0,0,0-1.78,2.88,9.77,9.77,0,0,0-.63,3.52v.06a9.72,9.72,0,0,0,.65,3.54,8.92,8.92,0,0,0,1.79,2.88,8.4,8.4,0,0,0,2.73,1.95,8.13,8.13,0,0,0,3.46.73,8.25,8.25,0,0,0,6.17-2.65,8.85,8.85,0,0,0,1.78-2.87,9.77,9.77,0,0,0,.63-3.52Z"/><path class="cls-2" d="M255.85,265.92V248.36l-8,11.64h-.11l-8-11.64v17.56h-1.45V245.7h1.42l8.11,12,8.12-12h1.41v20.22Z"/><path class="cls-2" d="M280.25,265.92l-2.57-5.66H265.76l-2.57,5.66h-1.56L271,245.56h1.45l9.41,20.36Zm-8.52-18.72-5.34,11.7h10.66Z"/><path class="cls-2" d="M290.68,247.06v18.86h-1.5V247.06h-7.05V245.7h15.6v1.36Z"/><path class="cls-2" d="M302.49,265.92V245.7H304v20.22Z"/><path class="cls-2" d="M328.9,259.78a10.69,10.69,0,0,1-2.06,3.34,9.88,9.88,0,0,1-3.22,2.29,10.08,10.08,0,0,1-4.18.85,9.87,9.87,0,0,1-4.17-.85,9.94,9.94,0,0,1-5.24-5.59,10.94,10.94,0,0,1-.72-3.95v-.06a10.84,10.84,0,0,1,.73-4,10.54,10.54,0,0,1,2.07-3.34,9.65,9.65,0,0,1,3.2-2.29,10.56,10.56,0,0,1,8.35,0,9.62,9.62,0,0,1,3.2,2.28,10,10,0,0,1,2.05,3.31,10.73,10.73,0,0,1,.73,3.95,0,0,0,0,1,0,.06A10.85,10.85,0,0,1,328.9,259.78Zm-.82-4a9.72,9.72,0,0,0-.65-3.54,9.15,9.15,0,0,0-1.79-2.89,8.71,8.71,0,0,0-2.73-1.95,8.45,8.45,0,0,0-9.63,1.92,8.84,8.84,0,0,0-1.78,2.88,9.77,9.77,0,0,0-.63,3.52v.06a9.71,9.71,0,0,0,.64,3.54,9,9,0,0,0,1.8,2.88,8.47,8.47,0,0,0,2.72,1.95,8.18,8.18,0,0,0,3.47.73,8.3,8.3,0,0,0,6.17-2.65,8.66,8.66,0,0,0,1.77-2.87,9.78,9.78,0,0,0,.64-3.52Z"/><path class="cls-2" d="M350.43,265.92l-14.24-18v18h-1.44V245.7h1.41l13.95,17.59V245.7h1.45v20.22Z"/><path class="cls-2" d="M377,247.06v18.86h-1.5V247.06h-7.05V245.7h15.6v1.36Z"/><path class="cls-2" d="M388.65,265.92V245.7H403v1.36H390.15v8h11.58v1.36H390.15v8.14h13v1.36Z"/><path class="cls-2" d="M423.52,264.17a10.08,10.08,0,0,1-3.91,1.83,10.52,10.52,0,0,1-2.45.26,9.89,9.89,0,0,1-4-.81,9.78,9.78,0,0,1-3.19-2.2,10.19,10.19,0,0,1-2.09-3.31,11,11,0,0,1-.75-4.07v-.06a10.75,10.75,0,0,1,.76-4,10.48,10.48,0,0,1,2.11-3.34,9.82,9.82,0,0,1,7.23-3.08,11.53,11.53,0,0,1,2.46.24,9.11,9.11,0,0,1,2,.66,10.36,10.36,0,0,1,1.77,1,16.09,16.09,0,0,1,1.6,1.31l-1.07,1.1a14.31,14.31,0,0,0-1.39-1.19,8.93,8.93,0,0,0-1.54-.94,9.67,9.67,0,0,0-1.79-.62,9.23,9.23,0,0,0-2.09-.23,8.23,8.23,0,0,0-6.08,2.62,8.71,8.71,0,0,0-1.79,2.87,9.45,9.45,0,0,0-.65,3.55v.06a9.6,9.6,0,0,0,.66,3.57,9,9,0,0,0,1.81,2.88,8.38,8.38,0,0,0,2.69,1.94,8.13,8.13,0,0,0,3.38.71,8.44,8.44,0,0,0,3.82-.81,12.38,12.38,0,0,0,3.14-2.34l1,1A17,17,0,0,1,423.52,264.17Z"/><path class="cls-2" d="M443.75,265.92v-9.48H430.82v9.48h-1.51V245.7h1.51v9.39h12.93V245.7h1.5v20.22Z"/><path class="cls-2" d="M466.94,265.92l-14.23-18v18h-1.45V245.7h1.42l13.95,17.59V245.7h1.44v20.22Z"/><path class="cls-2" d="M492.78,259.78a10.54,10.54,0,0,1-2.07,3.34,9.88,9.88,0,0,1-3.22,2.29A10.11,10.11,0,0,1,476,263.13a10.24,10.24,0,0,1-2.05-3.31,10.94,10.94,0,0,1-.72-3.95v-.06a10.85,10.85,0,0,1,.74-4A10.69,10.69,0,0,1,476,248.5a9.79,9.79,0,0,1,3.21-2.29,10,10,0,0,1,4.19-.86,9.88,9.88,0,0,1,4.15.86,9.66,9.66,0,0,1,3.21,2.28,10,10,0,0,1,2.05,3.31,10.94,10.94,0,0,1,.72,3.95,0,0,0,0,1,0,.06A10.84,10.84,0,0,1,492.78,259.78Zm-.83-4a9.51,9.51,0,0,0-.65-3.54,9,9,0,0,0-1.79-2.89,8.71,8.71,0,0,0-2.73-1.95,8.71,8.71,0,0,0-6.91,0,8.41,8.41,0,0,0-2.72,1.93,8.81,8.81,0,0,0-1.77,2.88,9.57,9.57,0,0,0-.64,3.52v.06a9.72,9.72,0,0,0,.65,3.54,8.92,8.92,0,0,0,1.79,2.88,8.4,8.4,0,0,0,2.73,1.95,8.14,8.14,0,0,0,3.47.73,8.35,8.35,0,0,0,3.45-.71,8.25,8.25,0,0,0,2.71-1.94,8.85,8.85,0,0,0,1.78-2.87,9.77,9.77,0,0,0,.63-3.52Z"/><path class="cls-2" d="M498.62,265.92V245.7h1.51v18.86H512v1.36Z"/><path class="cls-2" d="M534,259.78a10.69,10.69,0,0,1-2.06,3.34,9.88,9.88,0,0,1-3.22,2.29,10.11,10.11,0,0,1-11.54-2.28,10.24,10.24,0,0,1-2.05-3.31,10.94,10.94,0,0,1-.72-3.95v-.06a10.64,10.64,0,0,1,.74-4,10.51,10.51,0,0,1,2.06-3.34,9.69,9.69,0,0,1,3.21-2.29,10.54,10.54,0,0,1,8.34,0,9.77,9.77,0,0,1,3.21,2.28,10.13,10.13,0,0,1,2,3.31,10.94,10.94,0,0,1,.72,3.95,0,0,0,0,1,0,.06A10.85,10.85,0,0,1,534,259.78Zm-.82-4a9.72,9.72,0,0,0-.65-3.54,9,9,0,0,0-1.79-2.89,8.71,8.71,0,0,0-2.73-1.95,8.28,8.28,0,0,0-3.46-.72,8.36,8.36,0,0,0-3.46.71,8.48,8.48,0,0,0-2.71,1.93,9,9,0,0,0-1.78,2.88,9.77,9.77,0,0,0-.63,3.52v.06a9.72,9.72,0,0,0,.65,3.54,8.92,8.92,0,0,0,1.79,2.88,8.4,8.4,0,0,0,2.73,1.95,8.13,8.13,0,0,0,3.46.73,8.3,8.3,0,0,0,6.17-2.65,8.85,8.85,0,0,0,1.78-2.87,9.77,9.77,0,0,0,.63-3.52Z"/><path class="cls-2" d="M553.68,265.36a11.05,11.05,0,0,1-4.52.9,10.62,10.62,0,0,1-4.29-.82,9.28,9.28,0,0,1-3.19-2.24,9.84,9.84,0,0,1-2-3.3,11.69,11.69,0,0,1-.69-4v-.06a11.16,11.16,0,0,1,.7-3.94,10.26,10.26,0,0,1,2-3.34,9.82,9.82,0,0,1,3.16-2.31,9.5,9.5,0,0,1,4.1-.87,13.23,13.23,0,0,1,2.27.18,9.29,9.29,0,0,1,1.9.52,10.14,10.14,0,0,1,1.68.84,12.28,12.28,0,0,1,1.54,1.12l-1,1.13a11,11,0,0,0-2.7-1.73,9,9,0,0,0-3.8-.7,7.85,7.85,0,0,0-3.38.72,8.27,8.27,0,0,0-2.64,2,9,9,0,0,0-1.72,2.89,10,10,0,0,0-.6,3.46v.06a10.71,10.71,0,0,0,.59,3.63,8.19,8.19,0,0,0,1.72,2.88,7.93,7.93,0,0,0,2.73,1.9,8.86,8.86,0,0,0,3.62.7,9.91,9.91,0,0,0,1.88-.19,10.66,10.66,0,0,0,3.29-1.24,9.12,9.12,0,0,0,1.27-.88v-5.78H548.9v-1.36h8.2v7.78A13.47,13.47,0,0,1,553.68,265.36Z"/><path class="cls-2" d="M562.74,265.92V245.7h1.5v20.22Z"/><path class="cls-2" d="M570.44,265.92V245.7h14.39v1.36H572v8h11.58v1.36H572v8.14h13v1.36Z"/><path class="cls-2" d="M602.83,262.93a5.23,5.23,0,0,1-1.38,1.75,6.53,6.53,0,0,1-2.11,1.12,8.59,8.59,0,0,1-2.7.41,11.32,11.32,0,0,1-4.38-.81A13.38,13.38,0,0,1,588.5,263l1-1.13a13.87,13.87,0,0,0,1.66,1.35,9.63,9.63,0,0,0,1.69.92,8.94,8.94,0,0,0,1.82.55,10.3,10.3,0,0,0,2.08.19,6.92,6.92,0,0,0,2.08-.3,5.22,5.22,0,0,0,1.61-.84,4,4,0,0,0,1-1.27,3.5,3.5,0,0,0,.38-1.61v-.05a3.9,3.9,0,0,0-.25-1.45,2.73,2.73,0,0,0-.89-1.15,6.6,6.6,0,0,0-1.75-.94,17.94,17.94,0,0,0-2.83-.77,19.52,19.52,0,0,1-3.12-.88,7.55,7.55,0,0,1-2.12-1.18,4.08,4.08,0,0,1-1.2-1.57,5.33,5.33,0,0,1-.38-2.06v-.05a4.7,4.7,0,0,1,.49-2.1,5.48,5.48,0,0,1,1.36-1.69,6.43,6.43,0,0,1,2.05-1.12,8,8,0,0,1,2.6-.41,10.85,10.85,0,0,1,3.8.61,11.2,11.2,0,0,1,3.13,1.85l-1,1.18a8.67,8.67,0,0,0-6-2.28,6.42,6.42,0,0,0-2,.3,5,5,0,0,0-1.56.83,3.49,3.49,0,0,0-1,1.21,3.25,3.25,0,0,0-.35,1.47v.06a4.18,4.18,0,0,0,.25,1.46,2.75,2.75,0,0,0,.9,1.18,6.23,6.23,0,0,0,1.8,1,20.29,20.29,0,0,0,3,.81,11.67,11.67,0,0,1,5.08,2,4.4,4.4,0,0,1,1.56,3.54v.06A5,5,0,0,1,602.83,262.93Z"/></g></g></svg>